<svg width="45" height="45" viewBox="0 0 45 45" fill="none" xmlns="http://www.w3.org/2000/svg">
<g id="adobe-photoshop 1">
<path id="Vector" d="M2.8125 17.0625C2.8125 12.0745 2.8125 9.58054 3.78322 7.6754C4.6371 5.99958 5.99958 4.6371 7.6754 3.78322C9.58054 2.8125 12.0745 2.8125 17.0625 2.8125H27.9375C32.9255 2.8125 35.4195 2.8125 37.3245 3.78322C39.0004 4.6371 40.3629 5.99958 41.2168 7.6754C42.1875 9.58054 42.1875 12.0745 42.1875 17.0625V27.9375C42.1875 32.9255 42.1875 35.4195 41.2168 37.3245C40.3629 39.0004 39.0004 40.3629 37.3245 41.2168C35.4195 42.1875 32.9255 42.1875 27.9375 42.1875H17.0625C12.0745 42.1875 9.58054 42.1875 7.6754 41.2168C5.99958 40.3629 4.6371 39.0004 3.78322 37.3245C2.8125 35.4195 2.8125 32.9255 2.8125 27.9375V17.0625Z" fill="#001E36"/>
<g id="Group">
<path id="Vector_2" d="M11.25 31.6634V14.3485C11.25 14.2308 11.2992 14.1635 11.4141 14.1635C13.1095 14.1635 14.8042 14.0625 16.5 14.0625C19.2518 14.0625 22.2314 15.0034 23.2758 17.8822C23.5219 18.5889 23.6531 19.3125 23.6531 20.0697C23.6531 21.5169 23.325 22.7115 22.6688 23.6538C20.8356 26.286 17.6583 26.2451 14.8102 26.2451V31.6467C14.8324 31.8066 14.6962 31.8822 14.5641 31.8822H11.4469C11.3156 31.8822 11.25 31.8149 11.25 31.6634ZM14.8265 17.4111V23.0649C15.9559 23.1476 17.1375 23.1566 18.2226 22.7957C19.4206 22.4501 20.0766 21.4133 20.0766 20.1707C20.1098 19.1119 19.533 18.096 18.5508 17.714C17.4788 17.2682 15.9837 17.2415 14.8265 17.4111Z" fill="#31A8FF"/>
<path id="Vector_3" d="M33.886 21.9479C33.3896 21.6862 32.8608 21.4948 32.3142 21.3789C31.6119 21.2137 28.8419 20.6349 28.8408 22.0833C28.8654 22.8919 30.149 23.2881 30.7161 23.5191C32.7073 24.2027 34.9603 25.4246 34.916 27.8809C34.9769 30.9386 32.0143 32.1611 29.4747 32.1614C28.1527 32.175 26.7754 31.9703 25.5655 31.4027C25.4499 31.3415 25.3756 31.2109 25.3805 31.0776V28.1517C25.3675 28.0344 25.4935 27.9319 25.5919 28.0163C26.7774 28.7332 28.1825 29.0814 29.554 29.1C30.1594 29.1 31.3592 29.0413 31.3502 28.1517C31.3502 27.2981 29.9149 26.9056 29.3427 26.6888C28.5133 26.3928 27.7269 25.9826 27.005 25.4697C25.9962 24.7501 25.3634 23.5965 25.3805 22.3272C25.3746 19.448 28.1018 18.1557 30.5578 18.1551C31.7059 18.1455 32.9389 18.2306 34.0076 18.6969C34.1613 18.7421 34.1931 18.9041 34.1925 19.0491V21.7853C34.2022 21.9552 34.0137 22.013 33.886 21.9479Z" fill="#31A8FF"/>
</g>
</g>
</svg>
