<svg width="46" height="35" viewBox="0 0 46 35" fill="none" xmlns="http://www.w3.org/2000/svg">
<path id="Vector" d="M40.0781 0.563852C39.5946 0.251051 39.0417 0.0618127 38.4679 0.0127719C37.8941 -0.0362688 37.3171 0.0563895 36.7875 0.282602L19.4344 7.11698C19.0235 7.28418 18.5842 7.37014 18.1406 7.3701H7.03125C6.09885 7.3701 5.20464 7.7405 4.54533 8.3998C3.88602 9.05911 3.51562 9.95332 3.51562 10.8857V11.167H0V19.6045H3.51562V19.9701C3.53766 20.8878 3.91775 21.7605 4.57469 22.4017C5.23162 23.0428 6.11328 23.4016 7.03125 23.4014L11.25 32.3451C11.5357 32.9474 11.9854 33.4569 12.5476 33.8151C13.1098 34.1733 13.7616 34.3656 14.4281 34.3701H16.2C17.1275 34.3627 18.0145 33.989 18.6678 33.3305C19.321 32.672 19.6875 31.782 19.6875 30.8545V23.7389L36.7875 30.5732C37.2081 30.7406 37.6567 30.8265 38.1094 30.8264C38.8117 30.815 39.4956 30.6001 40.0781 30.2076C40.5407 29.8953 40.9223 29.4773 41.1913 28.9882C41.4603 28.4991 41.6089 27.953 41.625 27.3951V3.46073C41.6224 2.88843 41.4802 2.32541 41.2106 1.82057C40.941 1.31573 40.5523 0.884336 40.0781 0.563852ZM16.1719 10.8857V19.9701H7.03125V10.8857H16.1719ZM16.1719 30.8545H14.4L10.9406 23.4014H16.1719V30.8545ZM20.7281 20.392C20.3942 20.2213 20.046 20.0802 19.6875 19.9701V10.6889C20.0426 10.6156 20.3907 10.5121 20.7281 10.3795L38.1094 3.46073V27.3107L20.7281 20.392ZM41.7094 11.8701V18.9014C42.6418 18.9014 43.536 18.531 44.1953 17.8716C44.8546 17.2123 45.225 16.3181 45.225 15.3857C45.225 14.4533 44.8546 13.5591 44.1953 12.8998C43.536 12.2405 42.6418 11.8701 41.7094 11.8701Z" fill="black"/>
</svg>
