<svg width="45" height="45" viewBox="0 0 45 45" fill="none" xmlns="http://www.w3.org/2000/svg">
<g id="flag-for-flag-brazil-svgrepo-com 1" clip-path="url(#clip0_14_16)">
<path id="Vector" d="M45 33.75C45 35.0761 44.4732 36.3479 43.5355 37.2855C42.5979 38.2232 41.3261 38.75 40 38.75H5C3.67392 38.75 2.40215 38.2232 1.46447 37.2855C0.526784 36.3479 0 35.0761 0 33.75V11.25C0 9.92392 0.526784 8.65215 1.46447 7.71447C2.40215 6.77678 3.67392 6.25 5 6.25H40C41.3261 6.25 42.5979 6.77678 43.5355 7.71447C44.4732 8.65215 45 9.92392 45 11.25V33.75Z" fill="#009B3A"/>
<path id="Vector_2" d="M40.91 22.5L22.5 36.405L4.09003 22.5L22.5 8.59375L40.91 22.5Z" fill="#FEDF01"/>
<path id="Vector_3" d="M22.47 30.4775C26.9283 30.4775 30.5425 26.8633 30.5425 22.405C30.5425 17.9467 26.9283 14.3325 22.47 14.3325C18.0117 14.3325 14.3975 17.9467 14.3975 22.405C14.3975 26.8633 18.0117 30.4775 22.47 30.4775Z" fill="#002776"/>
<path id="Vector_4" d="M15.3462 18.6088C14.927 19.3989 14.643 20.2536 14.5062 21.1375C19.5 20.775 26.2775 23.5013 29.1862 26.8813C29.6887 26.1263 30.0612 25.2813 30.29 24.3763C26.7 20.8663 20.3937 18.5888 15.3462 18.6088Z" fill="#CBE9D4"/>
<path id="Vector_5" d="M15 22.7913H16.25V24.0413H15V22.7913ZM16.25 25.2913H17.5V26.5413H16.25V25.2913Z" fill="#88C9F9"/>
<path id="Vector_6" d="M18.75 22.7913H20V24.0413H18.75V22.7913ZM21.25 24.0413H22.5V25.2913H21.25V24.0413ZM26.25 26.5413H27.5V27.7913H26.25V26.5413ZM22.5 27.7913H23.75V29.0413H22.5V27.7913ZM26.25 20.2913H27.5V21.5413H26.25V20.2913Z" fill="#55ACEE"/>
<path id="Vector_7" d="M23.75 25.2913H25V26.5413H23.75V25.2913Z" fill="#3B88C3"/>
</g>
<defs>
<clipPath id="clip0_14_16">
<rect width="45" height="45" fill="white"/>
</clipPath>
</defs>
</svg>
