<svg width="21" height="21" viewBox="0 0 21 21" fill="none" xmlns="http://www.w3.org/2000/svg">
<g id="Mask group">
<mask id="mask0_5_49" style="mask-type:alpha" maskUnits="userSpaceOnUse" x="0" y="0" width="21" height="21">
<g id="Mask group_2">
<g id="Mask group_3">
<circle id="Ellipse 8" cx="10.5" cy="10.5" r="10.5" fill="black"/>
</g>
</g>
</mask>
<g mask="url(#mask0_5_49)">
<g id="Group">
<path id="Vector" d="M-1.89407 20.8668H22.8941V0.133249H-1.89407V20.8668ZM-2 21V0H23V21H-2Z" fill="#353636"/>
<path id="Vector_2" d="M-1.95755 0.0799561H22.9365V20.9467H-1.95755V0.0799561Z" fill="#15934B"/>
<path id="Vector_3" d="M0.542328 10.5L10.4894 18.4949L20.4364 10.5L10.4894 2.5051L0.542328 10.5Z" fill="#ECC21B"/>
<path id="Vector_4" d="M10.4894 5.1301C12.8517 5.1301 14.7585 7.52857 14.7585 10.5C14.7585 13.4715 12.8517 15.8699 10.4894 15.8699C8.12715 15.8699 6.22037 13.4715 6.22037 10.5C6.22037 7.52857 8.12715 5.1301 10.4894 5.1301Z" fill="#36367C"/>
<path id="Vector_5" d="M14.7373 11.0463C12.8729 9.16747 10.4894 8.10148 7.92586 8.20808C7.47035 8.23473 7.02543 8.28803 6.59111 8.39462C6.50636 8.6478 6.43221 8.94095 6.36865 9.22077C6.87713 9.08752 7.41738 9.02089 7.94704 8.99424C10.4894 8.88765 12.8305 10.0069 14.6102 11.9124C14.6737 11.6326 14.7161 11.3261 14.7373 11.0463Z" fill="white"/>
<path id="Vector_6" d="M6.78174 8.71443L6.82411 8.84768L6.90886 8.87433L6.9936 8.82103L7.01479 8.68778L6.97241 8.55453L6.88767 8.52788L6.80292 8.58118L6.78174 8.71443ZM6.69699 8.74108V8.60783L6.71818 8.52788L6.76055 8.47458L6.8453 8.44793L6.9936 8.50123L7.07835 8.68778L7.03597 8.88766L6.88767 8.99425L6.78174 8.9143L6.69699 8.74108ZM7.35377 8.59451H7.41733L7.50208 8.56786L7.52326 8.54121V8.48791L7.50208 8.43461H7.34318L7.35377 8.59451ZM7.29021 8.90098L7.24784 8.38131L7.42792 8.35466H7.53386L7.57623 8.40796L7.59741 8.48791L7.57623 8.59451L7.49148 8.64781L7.53386 8.70111L7.59741 8.78106L7.66097 8.88766H7.55504L7.49148 8.78106L7.44911 8.70111L7.40674 8.67446H7.34318L7.36436 8.87433L7.29021 8.90098ZM7.86225 8.40796V8.74108H7.96818L8.01055 8.71443L8.03174 8.66113V8.46126L8.01055 8.40796H7.86225ZM7.7775 8.32801H8.02114L8.0847 8.38131L8.12708 8.46126L8.14826 8.59451L8.12708 8.70111L8.0847 8.80771L8.02114 8.86101L7.9364 8.88766H7.7775V8.32801ZM8.31775 8.82103V8.30136H8.62496V8.40796H8.4025V8.51456H8.60377V8.62116L8.4025 8.59451V8.75441H8.62496V8.86101L8.31775 8.82103ZM8.78386 8.84768L8.82623 8.32801H8.95335L9.01691 8.68778L9.10165 8.35466H9.22877L9.20759 8.87433H9.12284L9.14403 8.46126L9.03809 8.87433L8.95335 8.84768L8.88979 8.43461L8.8686 8.84768H8.78386ZM9.63131 8.95428L9.69487 8.43461L10.0021 8.48791L9.98089 8.56786L9.77962 8.54121L9.75843 8.64781L9.9597 8.70111L9.93852 8.78106L9.73725 8.72776L9.71606 8.88766L9.9597 8.94096L9.93852 9.0209L9.63131 8.95428ZM10.5106 8.68778L10.4894 8.84768H10.5953L10.6377 8.82103L10.6589 8.79438V8.74108L10.6377 8.71443L10.5741 8.68778H10.5106ZM10.3411 9.10085L10.447 8.58118L10.5741 8.60783L10.68 8.63448L10.7224 8.71443V8.82103L10.7012 8.92763L10.6589 8.98093H10.6165L10.5317 8.95428L10.4682 8.92763L10.4258 9.11418H10.3411V9.10085ZM10.9661 8.98093L11.0296 9.00758L11.1144 9.03423H11.1356L11.1567 9.00758V8.95428L11.1356 8.92763L11.072 8.90098L11.0084 8.87433L10.9661 8.98093ZM10.8178 9.2341L10.9449 8.71443L11.1038 8.76773L11.1885 8.82103L11.2309 8.90098V8.98093L11.1885 9.06088L11.1038 9.08753L11.1461 9.14083L11.1673 9.24743L11.1885 9.38068L11.0826 9.35403L11.0402 9.22078L11.019 9.14083L10.9978 9.11418L10.9555 9.08753H10.9343L10.8919 9.2874L10.8178 9.2341ZM11.4533 9.20745V9.3407L11.5169 9.42065H11.6017L11.6652 9.31405V9.1808L11.6017 9.10085H11.5169L11.4533 9.20745ZM11.3686 9.1808L11.4322 9.04755L11.4957 8.99425L11.5593 8.9676L11.644 8.99425L11.7711 9.1275V9.32738L11.6652 9.48727H11.5063L11.3792 9.35403V9.1808H11.3686ZM12.0678 9.56722L12.0889 9.48727L12.2478 9.56722L12.1843 9.7671H12.0995L11.9936 9.74045L11.9089 9.6605L11.8665 9.52725L11.8877 9.394L11.9512 9.26075L12.0572 9.20745L12.1631 9.2341L12.269 9.3407L12.2902 9.47395L12.2055 9.4473L12.1843 9.36735L12.1419 9.31405H12.036L11.9724 9.42065L11.9512 9.58055L12.0148 9.6605L12.0783 9.68715L12.1207 9.6605L12.1419 9.6072L12.0678 9.56722ZM12.5233 9.70047L12.5868 9.72712L12.6504 9.75377H12.6716L12.6928 9.72712V9.67382L12.6716 9.64717L12.608 9.62052L12.5444 9.59387L12.5233 9.70047ZM12.3326 9.92699L12.5127 9.46062L12.6716 9.56722L12.7563 9.64717L12.7775 9.70047L12.7563 9.78042L12.6928 9.86037H12.6186L12.6398 9.91367L12.661 10.0203V10.1535L12.5762 10.1002L12.555 9.96697L12.5339 9.86037L12.5127 9.83372L12.4703 9.80707H12.4491L12.3644 10.0069L12.3326 9.92699ZM12.8093 10.2201L12.9894 9.75377L13.2754 9.94032L13.233 10.0203L13.0317 9.88702L12.9894 9.99362L13.1694 10.1269L13.1271 10.2068L12.947 10.0736L12.9046 10.2068L13.1059 10.3401L13.0635 10.42L12.8093 10.2201ZM13.2754 10.3401L13.3389 10.3934V10.4733L13.3813 10.5266L13.4449 10.5533L13.4872 10.5266V10.5L13.4661 10.4467L13.4237 10.3934L13.3601 10.2868L13.3813 10.1535L13.4237 10.1002H13.4872L13.572 10.1269L13.6567 10.2601L13.6356 10.3934L13.572 10.3401V10.2601L13.5296 10.2068L13.4661 10.1802L13.4449 10.2068V10.2335L13.5084 10.3134L13.572 10.42V10.5L13.5508 10.5799L13.5084 10.6599H13.4237L13.3389 10.6066L13.2542 10.5L13.2754 10.3401ZM13.6885 10.6865L13.7733 10.7132L13.7521 10.8198L13.7945 10.8731L13.858 10.8997L13.9004 10.8731V10.7931L13.8368 10.7398L13.7945 10.6066V10.5L13.858 10.4467H13.9216L14.0063 10.4733L14.0699 10.6066V10.7398L13.9851 10.6865V10.6066L13.9639 10.5533L13.9004 10.5266L13.8792 10.5533V10.5799L13.9216 10.6865L13.9851 10.7665V10.8464L13.9639 10.9264L13.9216 11.0063H13.8368L13.7521 10.953L13.6673 10.8198L13.6885 10.6865ZM14.197 11.0196L14.1546 11.1529L14.2182 11.2595L14.3029 11.2861L14.3877 11.2062L14.43 11.0729L14.3877 10.9663L14.3029 10.9397L14.197 11.0196ZM14.144 10.9397L14.2288 10.8331L14.2923 10.8064H14.3559L14.4406 10.8597L14.5254 11.0463L14.483 11.2462L14.3347 11.3794L14.1864 11.3261L14.1017 11.1396L14.144 10.9397Z" fill="#15934B"/>
<path id="Vector_7" d="M11.8453 8.46133L11.8877 8.62123H12.0148L11.9089 8.72783L11.9513 8.88773L11.8453 8.78113L11.7394 8.88773L11.7818 8.72783L11.6758 8.62123H11.803L11.8453 8.46133ZM10.5106 12.7919L10.553 12.9518H10.6801L10.5741 13.0584L10.6165 13.2183L10.5106 13.1117L10.4046 13.2183L10.447 13.0584L10.3411 12.9518H10.4682L10.5106 12.7919ZM13.5296 12.2589L13.572 12.4455H13.7203L13.5932 12.5254L13.6356 12.6853L13.5296 12.5787L13.4237 12.6853L13.4661 12.5254L13.3602 12.4455H13.4873L13.5296 12.2589ZM14.1229 12.3788L14.1652 12.4854H14.25L14.1652 12.5654L14.2076 12.6453L14.1229 12.592L14.0593 12.6453L14.0805 12.5654L14.0169 12.4854H14.1017L14.1229 12.3788ZM13.7097 12.7653L13.7309 12.9252H13.858L13.7521 13.0051L13.7945 13.1384L13.7097 13.0584L13.6038 13.1384L13.6462 13.0051L13.5614 12.9252H13.6674L13.7097 12.7653ZM13.4449 13.205L13.4661 13.3649H13.5932L13.5085 13.4448L13.5296 13.5781L13.4449 13.4981L13.339 13.5781L13.3813 13.4448L13.2966 13.3649H13.4025L13.4449 13.205ZM13.0953 13.5381L13.1165 13.6447H13.2013L13.1377 13.698L13.1589 13.8046L13.0953 13.7513L13.0318 13.8046L13.053 13.698L12.9894 13.6447H13.0741L13.0953 13.5381ZM12.6398 13.4448L12.6822 13.5514H12.7669L12.6822 13.6047L12.7246 13.7113L12.6398 13.6314L12.5763 13.7113L12.5974 13.6047L12.5339 13.5514H12.6186L12.6398 13.4448ZM12.1737 13.6181L12.1949 13.7247H12.2796L12.2161 13.8046L12.2373 13.9112L12.1737 13.8313L12.089 13.9112L12.1102 13.8046L12.0466 13.7247H12.1313L12.1737 13.6181ZM12.661 14.4975L12.6822 14.6041H12.7669L12.7034 14.684L12.7246 14.764L12.661 14.7107L12.5763 14.764L12.6186 14.684L12.5339 14.6041H12.6186L12.661 14.4975ZM11.7818 14.0311L11.8241 14.1644H11.9513L11.8453 14.271L11.8877 14.4042L11.7818 14.3243L11.697 14.4042L11.7182 14.271L11.6335 14.1644H11.7394L11.7818 14.0311ZM11.4534 13.4715L11.4746 13.5781H11.5805L11.4957 13.658L11.5169 13.7646L11.4534 13.698L11.3686 13.7513L11.411 13.6447L11.3263 13.5648H11.4322L11.4534 13.4715ZM12.661 13.9112L12.7034 14.0711H12.8093L12.7246 14.1511L12.7669 14.2843L12.661 14.2044L12.5763 14.2843L12.6186 14.1511L12.5127 14.0711H12.6398L12.661 13.9112ZM10.5106 14.7773V14.8306H10.553L10.5318 14.8573V14.9106L10.5106 14.8839L10.4682 14.9106L10.4894 14.8573L10.447 14.8306H10.4894L10.5106 14.7773ZM11.6335 10.087L11.6546 10.2202H11.7606L11.6758 10.2735L11.697 10.4068L11.6335 10.3268L11.5487 10.4068L11.5699 10.2735L11.5063 10.2202H11.5911L11.6335 10.087ZM10.5106 11.2729L10.5318 11.4061H10.6377L10.553 11.4861L10.5953 11.5927L10.5106 11.5127L10.4258 11.5927L10.447 11.4861L10.3835 11.4061H10.4682L10.5106 11.2729ZM10.9979 11.7659L11.0402 11.8992H11.1462L11.0614 11.9791L11.0826 12.1123L10.9979 12.0324L10.9237 12.099L10.9661 11.9658L10.8602 11.8858H10.9873L10.9979 11.7659ZM10.0763 11.7926L10.0974 11.8992H10.1822L10.1186 11.9524L10.1398 12.059L10.0763 11.9658L9.99151 12.0457L10.0339 11.9391L9.94914 11.8858H10.0339L10.0763 11.7926ZM10.2881 12.2323V12.3122H10.3517L10.3093 12.3389L10.3305 12.4188L10.2881 12.3655L10.2246 12.4188L10.2457 12.3389L10.2034 12.3122H10.2669L10.2881 12.2323ZM6.96185 9.39408L7.00422 9.55397H7.13134L7.02541 9.66057L7.06778 9.82047L6.96185 9.71387L6.85592 9.82047L6.89829 9.66057L6.79236 9.55397H6.91948L6.96185 9.39408ZM8.82626 10.6333L8.86863 10.7399H8.97456L8.88982 10.8198L8.911 10.9531L8.82626 10.8731L8.74151 10.9531L8.78388 10.8198L8.67795 10.7399H8.80507L8.82626 10.6333ZM7.3538 11.686L7.39617 11.8459H7.52329L7.41736 11.9258L7.45973 12.0857L7.3538 11.9791L7.24787 12.0857L7.29024 11.9258L7.18431 11.8459H7.31143L7.3538 11.686ZM7.76693 11.4594L7.78812 11.5394H7.85168L7.80931 11.5927L7.83049 11.6726L7.76693 11.6193L7.72456 11.6726L7.74575 11.5927L7.68219 11.5394H7.74575L7.76693 11.4594ZM8.25422 12.2589L8.29659 12.3922H8.40253L8.31778 12.4721L8.33897 12.6054L8.25422 12.5254L8.16948 12.6054L8.19066 12.4721L8.10592 12.3922H8.21185L8.25422 12.2589ZM8.7627 13.2583L8.80507 13.3915H8.93219L8.82626 13.4981L8.86863 13.658L8.7627 13.5514L8.65676 13.658L8.69914 13.4981L8.5932 13.3915H8.72032L8.7627 13.2583ZM8.10592 12.7919L8.14829 12.9252H8.25422L8.16948 13.0051L8.21185 13.1384L8.10592 13.0584L8.02117 13.1384L8.06354 13.0051L7.95761 12.9252H8.08473L8.10592 12.7919ZM6.81354 12.2323L6.83473 12.3389H6.91948L6.85592 12.3922L6.8771 12.4988L6.81354 12.4455L6.74998 12.4988L6.77117 12.3922L6.70761 12.3389H6.79236L6.81354 12.2323Z" fill="white"/>
</g>
</g>
</g>
</svg>
