<svg width="40" height="40" viewBox="0 0 40 40" fill="none" xmlns="http://www.w3.org/2000/svg">
<g id="css 1" clip-path="url(#clip0_10_155)">
<path id="Vector" d="M0.0524902 27.3825V1.86125C0.0524902 0.832499 0.88624 -0.00125122 1.91499 -0.00125122H38.0025C39.0437 -0.00125122 39.8712 0.832499 39.8712 1.8675V26.4637C38.7512 25.78 37.4362 25.4412 35.9387 25.4412C33.8487 25.4412 32.2662 25.9362 31.1862 26.9325C30.0987 27.9287 29.565 29.1462 29.565 30.6437C29.565 32.2587 30.1187 33.4562 31.2312 34.225C31.8825 34.7 33.08 35.1237 34.7987 35.495L36.55 35.8925C37.5987 36.12 38.3337 36.3937 38.8162 36.6612C39.285 36.9675 39.5325 37.39 39.5325 37.9375C39.5325 38.8812 39.0512 39.5325 38.0812 39.8512L38.0362 39.8775H34.3512C33.87 39.7012 33.4987 39.4537 33.1987 39.1287C32.8987 38.7575 32.6975 38.2113 32.6 37.4425H29.2987C29.2987 38.38 29.475 39.1812 29.8525 39.9037H27.0525C27.365 39.2587 27.5475 38.5362 27.5475 37.71C27.5475 36.245 27.0525 35.125 26.0762 34.35C25.4512 33.855 24.5075 33.4575 23.2575 33.1587L20.3925 32.4887C19.2925 32.2537 18.5762 32.02 18.225 31.8187C17.7112 31.5187 17.4637 31.07 17.4637 30.5037C17.4637 29.8725 17.7312 29.3712 18.245 29.0187C18.7925 28.6675 19.495 28.505 20.3937 28.505C21.2137 28.505 21.8587 28.655 22.4125 28.935C23.2325 29.365 23.6625 30.0875 23.7275 31.0837H27.0612C27.0087 29.3387 26.3712 27.9975 25.1475 27.0737C23.9037 26.1625 22.4387 25.6875 20.6937 25.6875C18.6037 25.6875 17.035 26.1887 15.9412 27.1525C14.8737 28.1225 14.3262 29.3662 14.3262 30.8375C14.3262 32.4525 14.8737 33.65 15.9925 34.4187C16.6562 34.8675 17.855 35.2912 19.5737 35.6887L21.3125 36.0862C22.335 36.3137 23.0837 36.5612 23.585 36.8612C24.0475 37.1612 24.3012 37.5775 24.3012 38.1312C24.3012 39.0812 23.8 39.6937 22.83 40.045H19.1C18.625 39.8687 18.2337 39.6213 17.9475 39.27C17.6475 38.905 17.4337 38.3325 17.335 37.5837H13.9687C13.9687 38.5087 14.145 39.3287 14.5025 40.045H11.02C11.5737 39.1787 11.945 38.1825 12.1262 37.0637H8.70124C8.46624 37.9162 8.17999 38.5612 7.82874 38.9837C7.39249 39.5312 6.82624 39.8825 6.12999 40.0575H4.08624C3.33124 39.8812 2.68624 39.4587 2.16624 38.7875C1.39749 37.8563 1.01999 36.4637 1.01999 34.6213C1.01999 32.7525 1.40374 31.34 2.11999 30.3237C2.86874 29.3012 3.83874 28.8062 5.10124 28.8062C6.35124 28.8062 7.26874 29.1512 7.91999 29.88C8.27124 30.2775 8.57124 30.8762 8.78624 31.67H12.2562C12.2037 30.6412 11.82 29.6062 11.11 28.5712C9.82124 26.735 7.78999 25.8175 5.00374 25.8175C3.06999 25.8175 1.44874 26.4225 0.15374 27.5887L0.0687402 27.4062L0.0524902 27.3825ZM39.8762 33.4375V30.8525H39.01C38.9512 29.8562 38.515 29.1462 37.7075 28.7237C37.1862 28.45 36.51 28.3137 35.7212 28.3137C34.8162 28.3137 34.1262 28.4962 33.5987 28.8475C33.085 29.205 32.805 29.7137 32.805 30.3512C32.805 30.9437 33.085 31.3862 33.5987 31.68C33.97 31.8562 34.6862 32.1037 35.7862 32.35L38.6512 33.0337C39.1525 33.1375 39.5825 33.2875 39.9862 33.4175L39.9012 33.47L39.8762 33.4375Z" fill="black"/>
</g>
<defs>
<clipPath id="clip0_10_155">
<rect width="40" height="40" fill="white"/>
</clipPath>
</defs>
</svg>
