<svg width="27" height="26" viewBox="0 0 27 26" fill="none" xmlns="http://www.w3.org/2000/svg">
<path id="Vector" d="M5.87923 25.2393C7.29898 25.2405 8.676 24.8989 9.77872 24.2719L25.0767 15.418C25.6766 15.0831 26.1611 14.6578 26.4941 14.1735C26.8271 13.6892 27 13.1585 27 12.6209C27 12.0833 26.8271 11.5526 26.4941 11.0683C26.1611 10.584 25.6766 10.1587 25.0767 9.82381L9.77872 0.96987C8.85774 0.452502 7.748 0.126929 6.57594 0.0302526C5.40389 -0.0664234 4.21667 0.0696857 3.14959 0.423071C2.22219 0.709677 1.43205 1.17739 0.873552 1.77034C0.315054 2.36329 0.011797 3.05643 0 3.76696V21.4748C0.011797 22.1854 0.315054 22.8785 0.873552 23.4715C1.43205 24.0644 2.22219 24.5321 3.14959 24.8187C4.00708 25.0921 4.93726 25.2355 5.87923 25.2393Z" fill="#A7A7A7"/>
</svg>
