<svg width="27" height="26" viewBox="0 0 27 26" fill="none" xmlns="http://www.w3.org/2000/svg">
<path id="Vector" d="M21.1208 25.2393C19.701 25.2405 18.324 24.8989 17.2213 24.2719L1.92329 15.418C1.32338 15.0831 0.838908 14.6578 0.505919 14.1735C0.172929 13.6892 0 13.1585 0 12.6209C0 12.0833 0.172929 11.5526 0.505919 11.0683C0.838908 10.584 1.32338 10.1587 1.92329 9.82381L17.2213 0.96987C18.1423 0.452502 19.252 0.126929 20.4241 0.0302526C21.5961 -0.0664234 22.7833 0.0696857 23.8504 0.423071C24.7778 0.709677 25.5679 1.17739 26.1264 1.77034C26.6849 2.36329 26.9882 3.05643 27 3.76696V21.4748C26.9882 22.1854 26.6849 22.8785 26.1264 23.4715C25.5679 24.0644 24.7778 24.5321 23.8504 24.8187C22.9929 25.0921 22.0627 25.2355 21.1208 25.2393Z" fill="#A7A7A7"/>
</svg>
