<svg width="19" height="19" viewBox="0 0 19 19" fill="none" xmlns="http://www.w3.org/2000/svg">
<g id="eye 1">
<path id="Vector" d="M9.5 3.02243C3.54382 3.02243 0.00839233 9.50001 0.00839233 9.50001C0.00839233 9.50001 3.54382 15.9774 9.5 15.9774C15.4562 15.9774 18.9916 9.50001 18.9916 9.50001C18.9916 9.50001 15.4562 3.02243 9.5 3.02243ZM9.49984 13.3648C7.36883 13.3648 5.63508 11.631 5.63508 9.50001C5.63508 7.369 7.36883 5.63525 9.49984 5.63525C11.6309 5.63525 13.3646 7.369 13.3646 9.50001C13.3646 11.631 11.6309 13.3648 9.49984 13.3648Z" fill="white"/>
<path id="Vector_2" d="M9.49999 11.8737C10.76 11.8737 11.7814 10.8523 11.7814 9.59231C11.7814 8.33231 10.76 7.31088 9.49999 7.31088C8.24 7.31088 7.21857 8.33231 7.21857 9.59231C7.21857 10.8523 8.24 11.8737 9.49999 11.8737Z" fill="white"/>
</g>
</svg>
