<svg width="45" height="45" viewBox="0 0 45 45" fill="none" xmlns="http://www.w3.org/2000/svg">
<g id="facebook 1" clip-path="url(#clip0_11_207)">
<path id="Vector" d="M38.25 0H6.75C3.02208 0 0 3.02208 0 6.75V38.25C0 41.9779 3.02208 45 6.75 45H38.25C41.9779 45 45 41.9779 45 38.25V6.75C45 3.02208 41.9779 0 38.25 0Z" fill="#1877F2"/>
<path id="Vector_2" d="M31.2539 29.0039L32.2559 22.5H26.0156V18.2812C26.0156 16.5059 26.8857 14.7656 29.6807 14.7656H32.5195V9.22852C32.5195 9.22852 29.9443 8.78906 27.4834 8.78906C22.3418 8.78906 18.9844 11.9004 18.9844 17.543V22.5H13.2715V29.0039H18.9844V45H26.0156V29.0039H31.2539Z" fill="white"/>
</g>
<defs>
<clipPath id="clip0_11_207">
<rect width="45" height="45" fill="white"/>
</clipPath>
</defs>
</svg>
