<svg width="45" height="45" viewBox="0 0 45 45" fill="none" xmlns="http://www.w3.org/2000/svg">
<g id="figma 1">
<g id="Group">
<path id="Vector" d="M30 30C34.1421 30 37.5 26.6421 37.5 22.5C37.5 18.3579 34.1421 15 30 15C25.8579 15 22.5 18.3579 22.5 22.5C22.5 26.6421 25.8579 30 30 30Z" fill="#19BCFE"/>
<path id="Vector_2" fill-rule="evenodd" clip-rule="evenodd" d="M15 45C19.1421 45 22.5 41.6421 22.5 37.5C22.5 36.3693 22.5 33.8693 22.5 30C19.1307 30 16.6307 30 15 30C10.8579 30 7.5 33.3579 7.5 37.5C7.5 41.6421 10.8579 45 15 45Z" fill="#09CF83"/>
<path id="Vector_3" fill-rule="evenodd" clip-rule="evenodd" d="M15 30H22.5V15C18.8807 15 16.3807 15 15 15C10.8579 15 7.5 18.3579 7.5 22.5C7.5 26.6421 10.8579 30 15 30Z" fill="#A259FF"/>
<path id="Vector_4" fill-rule="evenodd" clip-rule="evenodd" d="M15 15H22.5V0C18.8807 0 16.3807 0 15 0C10.8579 0 7.5 3.35786 7.5 7.5C7.5 11.6421 10.8579 15 15 15Z" fill="#F24E1E"/>
<path id="Vector_5" fill-rule="evenodd" clip-rule="evenodd" d="M30 15H22.5V0H30C34.1421 0 37.5 3.35786 37.5 7.5C37.5 11.6421 34.1421 15 30 15Z" fill="#FF7262"/>
</g>
</g>
</svg>
