<svg width="45" height="45" viewBox="0 0 45 45" fill="none" xmlns="http://www.w3.org/2000/svg">
<g id="github 1">
<path id="Vector" d="M18.1525 38.507C18.1525 37.9273 18.1308 36.0196 18.1308 33.6541C18.1308 32.0003 18.677 30.9212 19.2951 30.3716C15.4028 29.9205 11.3084 28.4004 11.3084 21.5997C11.3084 19.6636 11.9933 18.0799 13.1125 16.8404C12.9338 16.391 12.3291 14.5869 13.2863 12.1446C13.2863 12.1446 14.758 11.6668 18.1091 13.9621C19.5073 13.5695 21.0074 13.3708 22.5008 13.3674C23.9909 13.3708 25.491 13.5695 26.8926 13.9621C30.2403 11.6668 31.712 12.1446 31.712 12.1446C32.6692 14.5869 32.0679 16.391 31.8858 16.8404C33.0084 18.0799 33.6866 19.6619 33.6866 21.5997C33.6866 28.4154 29.5871 29.9172 25.6765 30.3549C26.3096 30.9061 26.8692 31.9869 26.8692 33.6441C26.8692 36.0146 26.8475 37.9256 26.8475 38.507C26.8475 38.9831 27.1632 39.5327 28.0536 39.3623C35.0197 37.0135 40.0396 30.3649 40.0396 22.5302C40.0396 12.7309 32.1848 4.78766 22.4975 4.78766C12.8135 4.78766 4.96045 12.7293 4.96045 22.5302C4.96045 30.3682 9.98535 37.0185 16.9614 39.3639C17.8334 39.5276 18.1525 38.9797 18.1525 38.507Z" fill="#D0CFCE"/>
<g id="Group">
<path id="Vector_2" d="M18.1525 38.507C18.1525 37.9273 18.1308 36.0196 18.1308 33.6541C18.1308 32.0003 18.677 30.9212 19.2951 30.3716C15.4028 29.9205 11.3084 28.4004 11.3084 21.5997C11.3084 19.6636 11.9933 18.0799 13.1125 16.8404C12.9338 16.391 12.3291 14.5869 13.2863 12.1446C13.2863 12.1446 14.758 11.6668 18.1091 13.9621C19.5073 13.5695 21.0074 13.3708 22.5008 13.3674C23.9909 13.3708 25.491 13.5695 26.8926 13.9621C30.2403 11.6668 31.712 12.1446 31.712 12.1446C32.6692 14.5869 32.0679 16.391 31.8858 16.8404C33.0084 18.0799 33.6866 19.6619 33.6866 21.5997C33.6866 28.4154 29.5871 29.9172 25.6765 30.3549C26.3096 30.9061 26.8692 31.9869 26.8692 33.6441C26.8692 36.0146 26.8475 37.9256 26.8475 38.507C26.8475 38.9831 27.1632 39.5327 28.0536 39.3623C35.0197 37.0135 40.0395 30.3649 40.0395 22.5302C40.0395 12.7309 32.1848 4.78766 22.4975 4.78766C12.8135 4.78766 4.96045 12.7293 4.96045 22.5302C4.96045 30.3682 9.98535 37.0185 16.9614 39.3639C17.8334 39.5276 18.1525 38.9797 18.1525 38.507Z" stroke="black" stroke-width="2" stroke-miterlimit="10" stroke-linecap="round" stroke-linejoin="round"/>
<path id="Vector_3" d="M10.1808 30.0558C11.7861 30.5436 12.4193 31.0782 13.1743 32.3444C13.9277 33.6107 14.8114 35.024 18.1324 34.2188" stroke="black" stroke-width="2" stroke-miterlimit="10" stroke-linecap="round" stroke-linejoin="round"/>
</g>
</g>
</svg>
