<svg width="45" height="45" viewBox="0 0 45 45" fill="none" xmlns="http://www.w3.org/2000/svg">
<g id="HTML 1" clip-path="url(#clip0_10_173)">
<path id="Vector" d="M19.6101 44.9561L15.3211 43.4004C14.8711 43.2422 14.618 42.6533 14.7445 42.0908L24.3422 0.764677C24.4687 0.202177 24.9398 -0.114229 25.3898 0.0439739L29.6789 1.59964C30.1289 1.75784 30.382 2.34671 30.2555 2.90921L20.6578 44.2354C20.5242 44.7979 20.0601 45.1231 19.6101 44.9561ZM11.5945 35.0948L14.6531 31.0166C14.9765 30.586 14.9555 29.9004 14.5969 29.5049L8.22655 22.5L14.5969 15.4951C14.9555 15.0996 14.9836 14.4141 14.6531 13.9834L11.5945 9.9053C11.2781 9.48343 10.7437 9.45706 10.3992 9.86136L0.267175 21.7266C-0.0914185 22.1397 -0.0914185 22.8516 0.267175 23.2647L10.3992 35.1387C10.7437 35.543 11.2781 35.5254 11.5945 35.0948ZM34.6008 35.1475L44.7328 23.2735C45.0914 22.8604 45.0914 22.1485 44.7328 21.7354L34.6008 9.85257C34.2633 9.45706 33.7289 9.47464 33.4055 9.89651L30.3469 13.9746C30.0234 14.4053 30.0445 15.0908 30.4031 15.4864L36.7734 22.5L30.4031 29.5049C30.0445 29.9004 30.0164 30.586 30.3469 31.0166L33.4055 35.0948C33.7219 35.5254 34.2562 35.543 34.6008 35.1475Z" fill="black"/>
</g>
<defs>
<clipPath id="clip0_10_173">
<rect width="45" height="45" fill="white"/>
</clipPath>
</defs>
</svg>
