<svg width="45" height="45" viewBox="0 0 45 45" fill="none" xmlns="http://www.w3.org/2000/svg">
<g id="flag-for-flag-mexico-svgrepo-com 1">
<path id="Vector" d="M5 6.25C3.67392 6.25 2.40215 6.77678 1.46447 7.71447C0.526784 8.65215 0 9.92392 0 11.25L0 33.75C0 35.0761 0.526784 36.3479 1.46447 37.2855C2.40215 38.2232 3.67392 38.75 5 38.75H13.75V6.25H5Z" fill="#006847"/>
<path id="Vector_2" d="M40 6.25H31.25V38.75H40C41.3261 38.75 42.5978 38.2232 43.5355 37.2855C44.4732 36.3479 45 35.0761 45 33.75V11.25C45 9.92392 44.4732 8.65215 43.5355 7.71447C42.5978 6.77678 41.3261 6.25 40 6.25Z" fill="#CE1126"/>
<path id="Vector_3" d="M13.75 6.25H31.25V38.75H13.75V6.25Z" fill="#EEEEEE"/>
<path id="Vector_4" d="M28.75 22.5C28.75 24.1576 28.0915 25.7473 26.9194 26.9194C25.7473 28.0915 24.1576 28.75 22.5 28.75C20.8424 28.75 19.2527 28.0915 18.0806 26.9194C16.9085 25.7473 16.25 24.1576 16.25 22.5H15C15 24.4891 15.7902 26.3968 17.1967 27.8033C18.6032 29.2098 20.5109 30 22.5 30C24.4891 30 26.3968 29.2098 27.8033 27.8033C29.2098 26.3968 30 24.4891 30 22.5H28.75Z" fill="#A6D388"/>
<path id="Vector_5" d="M16.9288 25.3362C16.8917 25.2628 16.8405 25.1975 16.778 25.144C16.7156 25.0906 16.6432 25.05 16.5649 25.0247C16.4867 24.9993 16.4043 24.9897 16.3223 24.9964C16.2404 25.0031 16.1606 25.026 16.0875 25.0637C16.0143 25.1009 15.949 25.1522 15.8956 25.2147C15.8422 25.2771 15.8016 25.3495 15.7762 25.4276C15.7508 25.5057 15.741 25.5881 15.7474 25.67C15.7539 25.7519 15.7764 25.8318 15.8138 25.905C15.9263 26.1262 16.05 26.3425 16.1838 26.55L16.1888 26.5587L16.1988 26.5737L16.2025 26.5825L16.2038 26.585L16.2088 26.5912L16.2125 26.5987V26.6012L16.2163 26.6075L16.2175 26.61L16.2213 26.6162L16.2225 26.6187L16.2263 26.6237L16.2288 26.6275L16.2313 26.6312L16.2325 26.635L16.2363 26.6412L16.2375 26.6425L16.24 26.6462L16.2438 26.6537L16.245 26.6562L16.2488 26.6625L16.25 26.665L16.2588 26.6775V26.6787L16.265 26.6875C16.33 26.7837 16.3963 26.8775 16.4663 26.9712C16.5151 27.0369 16.5764 27.0922 16.6466 27.1341C16.7169 27.176 16.7947 27.2036 16.8757 27.2153C16.9566 27.227 17.0391 27.2227 17.1183 27.2025C17.1976 27.1822 17.2721 27.1466 17.3375 27.0975C17.4034 27.0486 17.459 26.9873 17.5012 26.9169C17.5434 26.8465 17.5712 26.7685 17.5832 26.6873C17.5951 26.6062 17.591 26.5234 17.5709 26.4439C17.5508 26.3643 17.5153 26.2895 17.4663 26.2237C17.2667 25.9408 17.0871 25.6442 16.9288 25.3362ZM16.3075 23.3587C16.2609 23.0137 16.2417 22.6655 16.25 22.3175C16.2547 22.1519 16.1935 21.9913 16.0799 21.8708C15.9662 21.7503 15.8093 21.6799 15.6438 21.675L15.5988 21.6762C15.441 21.6831 15.2917 21.7495 15.1809 21.8619C15.07 21.9744 15.0059 22.1246 15.0013 22.2825C14.9984 22.4121 14.9979 22.5417 15 22.6712V22.7837L15.0013 22.79V22.825L15.0025 22.8287L15.0013 22.8312V22.835L15.0025 22.8375V22.8737L15.0038 22.8775V22.8912L15.005 22.915L15.0063 22.9262V22.94C15.0175 23.14 15.0375 23.3387 15.0638 23.5362C15.087 23.6996 15.1739 23.8471 15.3055 23.9466C15.4371 24.0461 15.6028 24.0896 15.7663 24.0675C15.8484 24.0567 15.9277 24.0298 15.9994 23.9883C16.0712 23.9468 16.134 23.8915 16.1843 23.8257C16.2346 23.7598 16.2714 23.6846 16.2925 23.6045C16.3137 23.5244 16.3188 23.4408 16.3075 23.3587ZM22.925 28.7337L22.9175 28.735L22.7625 28.745C22.4664 28.7569 22.1699 28.7482 21.875 28.7187C21.7101 28.7022 21.5453 28.7518 21.417 28.8567C21.2886 28.9616 21.2072 29.1132 21.1906 29.2781C21.1741 29.443 21.2237 29.6078 21.3286 29.7362C21.4335 29.8645 21.5851 29.9459 21.75 29.9625L21.9063 29.9762L21.9113 29.9775L21.9138 29.9762L21.9175 29.9775H21.92L21.9275 29.9787H21.935L21.9388 29.98L21.9475 29.9787L21.9513 29.98H21.9575L21.965 29.9812L21.9713 29.9825H21.9875L21.995 29.9837H22.0113C22.2013 29.9962 22.3925 30.0025 22.585 29.9987H22.6338L22.6425 29.9975L22.65 29.9987H22.6688L22.675 29.9975H22.6988L22.7063 29.9962L22.7138 29.9975L22.715 29.9962L22.7225 29.9975H22.7238L22.73 29.9962H22.74L22.7475 29.995H22.755L22.7563 29.9962L22.7638 29.995H22.7725L22.7788 29.9937H22.8038L22.81 29.9925H22.815L22.82 29.9912L22.825 29.9925H22.8313L22.8363 29.9912H22.8425C22.895 29.99 22.9488 29.985 23.0013 29.9825C23.1632 29.9694 23.3134 29.893 23.4193 29.77C23.5253 29.6469 23.5786 29.487 23.5675 29.325C23.5643 29.2439 23.5451 29.1643 23.5111 29.0907C23.477 29.0171 23.4287 28.9509 23.369 28.8959C23.3094 28.841 23.2394 28.7984 23.1632 28.7706C23.087 28.7427 23.0061 28.7302 22.925 28.7337ZM19.8763 28.1737C19.561 28.0276 19.2583 27.8558 18.9713 27.66C18.8602 27.5834 18.7272 27.5452 18.5925 27.5512C18.4616 27.5568 18.3358 27.6033 18.2328 27.6842C18.1297 27.7652 18.0548 27.8765 18.0184 28.0023C17.9821 28.1282 17.9862 28.2623 18.0302 28.3857C18.0743 28.5091 18.156 28.6155 18.2638 28.69L18.265 28.6912L18.2725 28.695L18.28 28.7025L18.2875 28.7075L18.295 28.7137C18.6275 28.94 18.98 29.1387 19.3475 29.3087C19.4218 29.3434 19.5023 29.3631 19.5842 29.3666C19.6662 29.3701 19.748 29.3574 19.825 29.3291C19.9021 29.3009 19.9727 29.2577 20.033 29.2021C20.0933 29.1465 20.142 29.0795 20.1763 29.005C20.2115 28.9308 20.2316 28.8503 20.2356 28.7682C20.2396 28.6862 20.2273 28.6042 20.1994 28.5269C20.1715 28.4496 20.1286 28.3786 20.0731 28.318C20.0177 28.2574 19.9508 28.2084 19.8763 28.1737ZM26.1638 27.6762C26.0534 27.6815 25.9464 27.716 25.8538 27.7762C25.5615 27.9619 25.2546 28.1237 24.9363 28.26C24.7988 28.3146 24.6852 28.4164 24.6159 28.5471C24.5466 28.6778 24.5262 28.829 24.5582 28.9734C24.5903 29.1178 24.6727 29.2461 24.7908 29.3353C24.9089 29.4245 25.0548 29.4687 25.2025 29.46C25.2768 29.4564 25.3499 29.4404 25.4188 29.4125L25.5863 29.3375H25.5888L25.5963 29.3325L25.5988 29.3312L25.6038 29.3287H25.6088L25.6138 29.3262L25.6163 29.3237L25.6238 29.3225L25.6263 29.32L25.63 29.3175L25.6363 29.315L25.64 29.3137L25.6463 29.3112L25.6488 29.31L25.655 29.3075L25.6575 29.3062C25.6613 29.3037 25.6613 29.3025 25.6638 29.3025L25.6663 29.3012L25.6738 29.2975H25.6763L25.6838 29.2937L25.6913 29.29L25.6938 29.2887L25.7 29.285L25.7025 29.2837L25.71 29.28L25.7113 29.2787L25.72 29.2775L25.7288 29.2725L25.7313 29.2712L25.7363 29.2675H25.7388L25.7463 29.2625L25.7563 29.26L25.7638 29.255L25.7738 29.25L25.775 29.2487L25.7925 29.2412L25.8013 29.2375L25.8188 29.2275L25.8288 29.2237L25.8363 29.22L25.855 29.21L25.8625 29.2062L25.8913 29.1912L25.9 29.1887L25.9175 29.1787L25.9263 29.1737H25.9275C25.9288 29.1725 25.9313 29.1712 25.9363 29.1712C25.9388 29.1675 25.9413 29.1662 25.9438 29.165L25.9538 29.16L25.9613 29.1562V29.155L25.9788 29.1475L25.9888 29.1425L25.99 29.1412L25.9963 29.1375L26.0063 29.1325L26.0138 29.1287H26.0163L26.0238 29.1237L26.0325 29.1187L26.0338 29.1175L26.0413 29.1137L26.0488 29.11L26.0513 29.1087L26.0563 29.105L26.06 29.1037L26.0663 29.1L26.0688 29.0987L26.075 29.095L26.0775 29.0937L26.085 29.0912C26.0838 29.09 26.085 29.09 26.0863 29.09L26.0938 29.0862L26.0963 29.085L26.1013 29.0812L26.1038 29.08L26.1113 29.0762L26.1138 29.075C26.1138 29.0725 26.1163 29.0725 26.1188 29.0712L26.1225 29.07L26.1275 29.0675L26.1313 29.065L26.1363 29.0625L26.14 29.06L26.1438 29.0575L26.1475 29.0537L26.1538 29.0525L26.1588 29.0512L26.1613 29.0487L26.1663 29.0462L26.1713 29.0425L26.1738 29.0412L26.1788 29.0387L26.1838 29.035L26.1875 29.0325C26.19 29.0337 26.1913 29.0325 26.1938 29.0312L26.1963 29.0287L26.2013 29.0262L26.205 29.0237L26.2088 29.0212L26.2138 29.0187L26.2188 29.015L26.2213 29.0137C26.2238 29.0125 26.2288 29.0125 26.2313 29.01C26.2288 29.0087 26.2288 29.01 26.2313 29.01L26.2363 29.0062L26.245 29L26.2475 28.9987L26.2563 28.995L26.2713 28.9862L26.2813 28.98C26.289 28.9744 26.2974 28.9698 26.3063 28.9662C26.385 28.9187 26.4675 28.87 26.545 28.82C26.6845 28.7307 26.7828 28.5898 26.8184 28.428C26.8541 28.2663 26.8241 28.0971 26.735 27.9575C26.6692 27.8683 26.583 27.7963 26.4836 27.7473C26.3842 27.6984 26.2745 27.674 26.1638 27.6762ZM29.3775 21.9037L29.3475 21.905C29.1868 21.9117 29.0348 21.9802 28.9233 22.0962C28.8118 22.2121 28.7493 22.3666 28.7488 22.5275C28.7488 22.8737 28.7175 23.2237 28.6588 23.5637C28.6309 23.7273 28.6692 23.8953 28.7652 24.0307C28.8612 24.1661 29.007 24.2578 29.1706 24.2856C29.3342 24.3135 29.5022 24.2752 29.6376 24.1792C29.773 24.0832 29.8647 23.9373 29.8925 23.7737V23.7675L29.8938 23.765L29.895 23.7625L29.8938 23.76L29.895 23.7575V23.755L29.8963 23.7525V23.7487L29.8975 23.7462V23.735C29.9 23.7337 29.9 23.7312 29.9 23.73V23.7225C29.9268 23.5603 29.9485 23.3973 29.965 23.2337L29.9638 23.2325L29.965 23.2287L29.9663 23.2225V23.2087L29.9688 23.205L29.9675 23.2V23.1975L29.9688 23.1937V23.1887L29.9713 23.1875L29.9688 23.1837V23.1787C29.9713 23.1775 29.9713 23.1762 29.9713 23.175V23.1512L29.9738 23.1475C29.9907 22.9417 29.9995 22.734 30 22.5275C29.9997 22.3624 29.934 22.2041 29.8174 22.0872C29.7008 21.9704 29.5426 21.9044 29.3775 21.9037ZM28.8238 25.2737C28.7519 25.2339 28.6729 25.2087 28.5912 25.1995C28.5096 25.1903 28.4269 25.1972 28.348 25.22C28.269 25.2427 28.1953 25.2808 28.1311 25.3321C28.0669 25.3834 28.0134 25.4468 27.9738 25.5187C27.806 25.8231 27.6124 26.1125 27.395 26.3837C27.2929 26.5136 27.2464 26.6786 27.2657 26.8427C27.2849 27.0068 27.3683 27.1566 27.4977 27.2593C27.627 27.3621 27.7918 27.4094 27.956 27.3911C28.1201 27.3727 28.2703 27.2901 28.3738 27.1612C28.5188 26.9787 28.6575 26.7875 28.7863 26.5925C28.7888 26.5837 28.795 26.575 28.8 26.5675L28.8013 26.5662L28.8063 26.5587L28.8113 26.5487C28.8138 26.5462 28.8163 26.5437 28.8163 26.5412L28.8175 26.5425L28.8225 26.535V26.5337C28.8249 26.5314 28.8262 26.5283 28.8263 26.525L28.8288 26.5237L28.8338 26.5162C28.8363 26.515 28.8363 26.5112 28.8375 26.5087L28.8388 26.5075L28.8438 26.5L28.845 26.4975L28.8475 26.4912L28.8513 26.4887L28.8538 26.4825H28.8563L28.8588 26.475L28.86 26.4725L28.865 26.4675L28.8663 26.465C28.8675 26.4625 28.8675 26.46 28.87 26.4587L28.8713 26.455L28.8763 26.4512C28.8763 26.45 28.8763 26.4487 28.8788 26.4475V26.4425L28.8825 26.44L28.8863 26.4337L28.8875 26.4312L28.8913 26.4237L28.8938 26.4212L28.8963 26.4162L28.8988 26.4125C28.8988 26.4112 28.8988 26.41 28.9013 26.4087C28.9013 26.4075 28.9013 26.4062 28.9038 26.405L28.9075 26.3987L28.9088 26.395L28.9113 26.3912L28.9138 26.3875C28.9163 26.3862 28.9163 26.385 28.9163 26.3837C28.9188 26.3825 28.9188 26.3812 28.9188 26.3787L28.9213 26.375L28.925 26.37L28.9288 26.365V26.3612L28.9313 26.3575L28.935 26.3525L28.9388 26.3487V26.345L28.9438 26.3387V26.335C28.9463 26.3337 28.9475 26.3325 28.9475 26.33L28.95 26.3275L28.9525 26.3237L28.9563 26.3175L28.9588 26.3137V26.3112L28.9638 26.305C28.9638 26.3037 28.9638 26.3025 28.9663 26.3012L28.9675 26.2975L28.9713 26.2925L28.9738 26.2875L28.9763 26.2837C28.9775 26.2825 28.9763 26.28 28.9788 26.2787C28.9788 26.2775 28.9788 26.2762 28.9813 26.2762L28.9838 26.27L28.9863 26.2675L28.9888 26.26L28.9913 26.2587L28.9938 26.2537L28.9963 26.2512L28.9988 26.245L29.0013 26.2425L29.0038 26.235C29.0063 26.2337 29.0038 26.2325 29.0038 26.2325L29.0088 26.2262L29.01 26.2237L29.015 26.2175V26.2162L29.0188 26.2087L29.0213 26.2062L29.0238 26.1987L29.03 26.1912L29.0338 26.1837V26.1825L29.0388 26.1737L29.0413 26.1725L29.0725 26.1137C29.1501 25.9692 29.1675 25.7999 29.1209 25.6426C29.0743 25.4853 28.9675 25.3527 28.8238 25.2737Z" fill="#5C913B"/>
<path id="Vector_6" d="M22.5 27.5C24.5711 27.5 26.25 26.9404 26.25 26.25C26.25 25.5596 24.5711 25 22.5 25C20.4289 25 18.75 25.5596 18.75 26.25C18.75 26.9404 20.4289 27.5 22.5 27.5Z" fill="#55ACEE"/>
<path id="Vector_7" d="M23.125 27.5C24.1605 27.5 25 26.9404 25 26.25C25 25.5596 24.1605 25 23.125 25C22.0895 25 21.25 25.5596 21.25 26.25C21.25 26.9404 22.0895 27.5 23.125 27.5Z" fill="#FFCC4D"/>
<path id="Vector_8" d="M23.8963 26.5925C23.7882 26.5916 23.6822 26.5629 23.5885 26.5091C23.4948 26.4553 23.4165 26.3783 23.3613 26.2855C23.306 26.1926 23.2756 26.0871 23.2729 25.9791C23.2703 25.8711 23.2956 25.7642 23.3463 25.6688C23.5463 25.3013 23.7563 24.9675 23.9738 24.675C23.7947 24.6826 23.6155 24.6864 23.4363 24.6863C23.0913 24.6863 22.7763 24.405 22.7763 24.06C22.7763 23.715 23.02 23.435 23.3663 23.435L23.4688 23.4363C23.8388 23.4363 24.2188 23.4138 24.5588 23.3825C24.6535 23.373 24.7491 23.3856 24.8381 23.4195C24.927 23.4533 25.0069 23.5074 25.0713 23.5775C25.0888 23.5638 25.1063 23.55 25.125 23.5388C25.25 23.4563 25.3663 23.39 25.475 23.3375C25.5523 23.2779 25.6427 23.2376 25.7388 23.22L25.7838 23.2113C26.0188 23.135 26.1838 23.125 26.25 23.125C26.3479 23.1247 26.4445 23.1474 26.532 23.1914C26.6194 23.2354 26.6953 23.2993 26.7533 23.3781C26.8114 23.4569 26.8501 23.5483 26.8663 23.6448C26.8824 23.7414 26.8756 23.8404 26.8463 23.9338C26.7438 24.2663 26.515 24.3413 26.1138 24.4213C26.0089 24.4632 25.9091 24.5169 25.8163 24.5813C25.7032 24.6548 25.5696 24.6903 25.4349 24.6827C25.3003 24.675 25.1716 24.6246 25.0675 24.5388C25.1527 24.6487 25.1987 24.7839 25.1983 24.923C25.1978 25.062 25.1509 25.1969 25.065 25.3063C24.8525 25.5775 24.6438 25.9 24.445 26.2663C24.3915 26.3651 24.3123 26.4477 24.2157 26.5051C24.119 26.5625 24.0087 26.5928 23.8963 26.5925ZM22.1213 24.6063C22.0937 24.6064 22.0661 24.6048 22.0388 24.6013C21.5923 24.5434 21.151 24.451 20.7188 24.325C20.64 24.3017 20.5667 24.263 20.5029 24.2113C20.4391 24.1596 20.3861 24.0958 20.347 24.0236C20.3079 23.9514 20.2834 23.8722 20.2749 23.7905C20.2664 23.7088 20.2741 23.6262 20.2975 23.5475L20.305 23.5225L20.29 23.5513C20.2499 23.623 20.1961 23.686 20.1316 23.7369C20.0671 23.7878 19.9932 23.8254 19.9141 23.8477C19.8351 23.87 19.7524 23.8765 19.6708 23.8668C19.5893 23.8571 19.5104 23.8315 19.4388 23.7913C19.0235 23.5611 18.642 23.2746 18.305 22.94C18.1912 22.8221 18.1282 22.6643 18.1296 22.5004C18.131 22.3365 18.1968 22.1798 18.3126 22.0639C18.4285 21.948 18.5853 21.8823 18.7491 21.8809C18.913 21.8794 19.0709 21.9424 19.1888 22.0563C19.435 22.3025 19.7238 22.5188 20.0488 22.7C20.1761 22.7714 20.2745 22.8851 20.3268 23.0214C20.3791 23.1577 20.382 23.308 20.335 23.4463C20.4007 23.3147 20.5106 23.2105 20.6455 23.152C20.7804 23.0934 20.9316 23.0843 21.0725 23.1263C21.4175 23.2288 21.7963 23.3075 22.1975 23.3613C22.3549 23.3813 22.4989 23.4605 22.6001 23.5827C22.7013 23.7049 22.7522 23.8611 22.7425 24.0195C22.7328 24.1779 22.6632 24.3267 22.5478 24.4356C22.4325 24.5446 22.28 24.6056 22.1213 24.6063ZM19.0563 21.6825C18.5238 21.6825 17.835 21.4763 17.4175 20.9838C16.7775 20.2288 16.4013 19.26 16.4588 18.5175C16.4738 18.3188 16.28 18.1588 16.09 18.1088C15.9813 18.08 15.79 18.0625 15.7 18.2563C15.6652 18.3315 15.6019 18.3899 15.5241 18.4185C15.4463 18.4471 15.3603 18.4436 15.285 18.4088C15.2098 18.374 15.1514 18.3107 15.1228 18.2329C15.0942 18.155 15.0977 18.069 15.1325 17.9938C15.3275 17.57 15.765 17.3813 16.2475 17.5038C16.695 17.62 17.1238 18.0225 17.0813 18.5663C17.0363 19.1438 17.3638 19.9525 17.8938 20.5788C18.1725 20.9088 18.6575 21.0425 18.9875 21.055C19.2563 21.0688 19.3925 21.0075 19.4213 20.9813C19.3513 20.815 18.425 20.3275 18.03 20.12C17.6938 19.9438 17.5938 19.7013 17.5688 19.53C17.485 18.9613 18.0688 18.385 18.6338 17.83C18.8325 17.6338 19.0213 17.4488 19.1238 17.3125C19.24 17.1588 19.2213 17.0563 19.1988 16.9925C19.1125 16.7588 18.7388 16.5275 18.2888 16.4275C17.8725 16.335 17.5913 16.1338 17.4538 15.8288C17.2725 15.4275 17.3688 14.9025 17.7463 14.2225C17.7662 14.1867 17.793 14.1551 17.8252 14.1296C17.8573 14.1041 17.8942 14.0851 17.9337 14.0739C17.9731 14.0626 18.0144 14.0592 18.0552 14.0639C18.096 14.0686 18.1354 14.0813 18.1713 14.1013C18.2071 14.1212 18.2387 14.148 18.2642 14.1802C18.2897 14.2123 18.3087 14.2492 18.3199 14.2887C18.3312 14.3281 18.3346 14.3694 18.3299 14.4102C18.3252 14.451 18.3125 14.4904 18.2925 14.5263C17.9363 15.1663 17.9713 15.4563 18.0238 15.5725C18.0763 15.6875 18.21 15.7688 18.4238 15.8163C18.9525 15.9338 19.5888 16.2475 19.7838 16.775C19.895 17.0763 19.8388 17.4013 19.6238 17.6875C19.4938 17.8613 19.2888 18.0625 19.0725 18.2763C18.75 18.5938 18.1488 19.185 18.1875 19.44C18.195 19.4925 18.2638 19.5388 18.3213 19.5675C19.26 20.06 19.8838 20.4163 20.0113 20.8525C20.0336 20.927 20.0404 21.0052 20.0314 21.0823C20.0224 21.1595 19.9976 21.234 19.9588 21.3013C19.8375 21.5125 19.585 21.6425 19.2275 21.675C19.1738 21.68 19.115 21.6825 19.0563 21.6825Z" fill="#5C913B"/>
<path id="Vector_9" d="M24.375 23.75C24.7202 23.75 25 23.1904 25 22.5C25 21.8096 24.7202 21.25 24.375 21.25C24.0298 21.25 23.75 21.8096 23.75 22.5C23.75 23.1904 24.0298 23.75 24.375 23.75Z" fill="#FFCC4D"/>
<path id="Vector_10" d="M21.615 21.485C21.615 21.845 21.1837 22.1363 20.6512 22.1363C20.12 22.1363 19.6875 21.845 19.6875 21.485C19.6875 21.125 20.1187 20.8338 20.6512 20.8338C21.1825 20.8338 21.615 21.125 21.615 21.485ZM20.1312 15.7013C20.1937 15.9663 19.8475 16.2763 19.3575 16.3925C18.8675 16.5088 18.42 16.3875 18.3562 16.1225C18.2937 15.8563 18.64 15.5463 19.1287 15.43C19.62 15.315 20.0687 15.435 20.1312 15.7013Z" fill="#FFCC4D"/>
<path id="Vector_11" d="M28.1663 22.4437C28.2788 22.5312 28.47 21.5325 28.4413 21.2212C28.4413 21.2 28.405 20.5387 28.545 20.0662C28.6313 19.9062 28.6363 18.7125 28.5038 18.3987C28.6088 18.39 28.735 18.3562 28.75 18.2287C28.265 18.4075 28.1513 17.2075 27.685 16.5175C27.2325 15.8262 26.6713 15.4237 26.085 15.0037C26.1339 14.881 26.2022 14.7671 26.2875 14.6662C25.5688 15.0262 24.4488 13.7225 22.7938 13.82C22.4225 13.8562 22.2463 13.8787 22.1513 14.1062C21.8425 14.1312 21.5288 14.2012 21.5288 14.6075C21.5288 14.705 21.6175 14.8825 21.815 14.8837C22.085 14.9625 22.305 14.9012 22.4888 15.2787L22.5375 15.6687C22.5375 15.6687 22.2963 15.36 22.1638 15.3112L22.245 15.145C22.12 15.0725 21.8988 15.1312 21.8988 15.1312C21.8988 15.1312 21.4175 14.9062 21.0313 14.9662L20.9563 14.6537C20.8888 14.8462 20.7375 14.8362 20.7163 15.0175C20.6738 14.8875 20.6175 14.7262 20.5775 14.5962C20.4413 14.7812 20.4813 14.9812 20.4325 15.1737C20.38 15.2187 20.2725 15.22 20.245 15.0962C20.2313 14.9437 20.2125 14.93 20.2125 14.7487C20.115 14.92 19.9975 15.0037 19.9588 15.2975L19.855 14.9725C19.8588 15.3562 19.5288 15.585 19.2163 15.8562C19.1275 16.0187 19.23 16.02 19.2375 16.1037L19.4025 16.1862L19.6988 16.165C19.7475 16.2262 19.7075 16.2312 19.8363 16.27C20.1813 16.3662 20.6113 15.9525 20.9488 16.6037C20.7938 16.7337 20.6375 17.0375 20.6875 17.095C20.75 17.095 20.5625 17.1825 20.815 17.1025C20.5525 17.3575 20.375 17.6937 20.375 17.7137C20.345 17.7862 20.48 17.7037 20.4525 17.835L20.515 17.8275C19.9163 18.475 20.495 19.1712 20.4313 19.545C20.5313 19.7062 20.5438 19.5412 20.6688 19.525C20.7738 19.985 21.0763 20.2637 21.2613 20.6275L20.8713 20.6312C20.88 20.8037 21.0363 20.9675 21.16 21.1187L20.8988 21.2012C20.7308 21.285 20.5812 21.4014 20.4588 21.5437C20.3725 21.7537 20.875 21.8037 21.1175 21.8412L21.1088 22.095C21.4875 22.1312 21.925 22.0187 21.925 21.9975L22.02 21.9237L22.2338 22.0412C22.305 22.0412 22.4163 21.7562 22.365 21.5375C22.5025 21.7012 22.6325 21.965 22.77 22.13L22.8988 22.1125C23.0163 22.2987 23.1775 22.4837 23.295 22.67L23.4263 22.72C23.5025 22.6937 23.5675 22.685 23.6088 22.535L23.6688 22.64L23.8763 22.4975L24.0213 22.4687L24.13 22.6462C24.1938 22.6225 24.2563 22.4837 24.26 22.3362C24.325 22.465 24.3425 22.455 24.39 22.4887L24.4863 22.2862L25.005 22.7712L25.3975 22.7937C25.5375 22.8887 25.9213 22.9487 25.9863 22.795C26.3013 22.93 26.6725 22.7775 26.6538 22.6275C26.9438 22.7425 27.39 22.665 27.39 22.6462C27.4438 22.64 27.5813 22.505 27.4513 22.4037C26.4925 21.7362 25.0713 20.6312 24.5225 20.365C24.5225 20.1675 24.3738 19.4562 24.2138 19.2612L24.3438 19.0437C24.7175 19.3925 24.8525 19.3587 25.0513 19.4137C25.2638 19.5825 25.3375 19.8387 25.55 20.0725L25.74 20.1075C25.5851 19.7008 25.3495 19.3296 25.0475 19.0162C25.2525 19.1187 25.5925 19.3925 25.82 19.5912C25.97 19.8425 26.0138 20.0425 26.1513 20.3575C26.2513 20.4212 26.3538 20.655 26.34 20.4612C26.3163 20.0975 26.06 19.5212 26.06 19.48C26.4675 19.8025 26.4625 20.305 26.5863 20.6112C26.69 20.7662 26.7425 20.9737 26.7875 20.925L26.6675 19.98L26.5975 19.6337C26.8988 19.8075 27.0063 20.47 27.1475 21.265C27.1475 21.3912 27.1988 21.53 27.1913 21.6112C27.2563 21.6912 27.33 21.9125 27.3288 21.7812C27.3288 21.7812 27.3288 20.4887 27.24 20.1925C27.2175 20.0337 27.2775 19.7762 27.2775 19.7762C27.3875 20.3125 27.505 20.8937 27.6163 21.4287V21.8225L27.7813 21.9887C27.8125 21.6637 27.85 21.3412 27.8825 21.0187L27.7588 19.8625V19.5325C27.7563 19.4162 27.865 19.4375 27.9338 19.57C27.95 19.8537 27.95 20.075 27.9613 20.3575C28.01 20.68 28.0438 20.9162 28.0675 21.3275C28.0813 21.66 28.0963 22.4575 28.1663 22.4437Z" fill="#C1694F"/>
</g>
</svg>
