<svg width="45" height="45" viewBox="0 0 45 45" fill="none" xmlns="http://www.w3.org/2000/svg">
<g id="react 1" clip-path="url(#clip0_10_180)">
<path id="Vector" d="M36.999 14.5705C36.5322 14.39 36.0485 14.2193 35.5504 14.0579C35.6323 13.6828 35.7074 13.3125 35.7742 12.9485C36.8708 6.97202 36.1538 2.15729 33.7056 0.572071C31.358 -0.94794 27.5188 0.636915 23.6413 4.42575C23.2685 4.79008 22.8946 5.17581 22.5208 5.58008C22.2718 5.31261 22.0232 5.05413 21.7752 4.8069C17.7115 0.755631 13.6383 -0.951628 11.1924 0.638174C8.84714 2.16259 8.1526 6.6889 9.13966 12.3529C9.23498 12.9 9.3464 13.4587 9.47239 14.0267C8.89592 14.2104 8.33939 14.4063 7.80689 14.6147C3.04266 16.4797 0 19.4026 0 22.4345C0 25.5658 3.26629 28.7065 8.22861 30.6109C8.62022 30.7612 9.02656 30.9033 9.44532 31.0382C9.30939 31.6526 9.19116 32.2546 9.09192 32.8418C8.15075 38.4075 8.88575 42.8269 11.2248 44.3417C13.6408 45.906 17.6956 44.298 21.644 40.4229C21.956 40.1166 22.2692 39.7917 22.583 39.4512C22.9896 39.8909 23.3957 40.307 23.7995 40.6974C27.624 44.3926 31.4012 45.8847 33.7381 44.3657C36.1517 42.7968 36.9362 38.0494 35.9178 32.2733C35.84 31.8322 35.7495 31.3815 35.6478 30.9228C35.9326 30.8283 36.2121 30.7307 36.4847 30.6293C41.6435 28.7101 45 25.6076 45 22.4345C45 19.3917 41.8592 16.449 36.999 14.5705ZM35.8801 28.5804C35.6341 28.6719 35.3816 28.7603 35.1243 28.846C34.5548 26.8217 33.7862 24.669 32.8456 22.445C33.7432 20.2739 34.4821 18.1488 35.0356 16.1376C35.496 16.2872 35.9428 16.4449 36.3733 16.6114C40.5375 18.221 43.0776 20.6008 43.0776 22.4345C43.0776 24.3877 40.3344 26.9233 35.8801 28.5804ZM34.0319 32.6925C34.4822 35.2466 34.5465 37.5558 34.2483 39.361C33.9802 40.9831 33.4413 42.0646 32.7748 42.4977C31.3567 43.4194 28.3239 42.2213 25.0532 39.0612C24.6783 38.6989 24.3006 38.3121 23.9218 37.9027C25.1897 36.3456 26.457 34.5355 27.6938 32.5251C29.8692 32.3084 31.9245 31.954 33.7883 31.4703C33.8801 31.886 33.9617 32.2938 34.0319 32.6925ZM15.3415 42.3384C13.956 42.8878 12.8524 42.9036 12.1854 42.4717C10.7659 41.5525 10.1758 38.0041 10.9807 33.2444C11.0729 32.6992 11.1827 32.1393 11.3092 31.5669C13.1526 32.0246 15.1928 32.354 17.3734 32.5525C18.6185 34.5196 19.9224 36.3278 21.2364 37.911C20.9493 38.2222 20.6633 38.5185 20.379 38.7976C18.633 40.5112 16.8834 41.7269 15.3415 42.3384ZM8.85034 28.5685C6.6561 27.7264 4.84401 26.632 3.60191 25.4377C2.4858 24.3645 1.92231 23.299 1.92231 22.4345C1.92231 20.5946 4.36526 18.2479 8.43967 16.6529C8.93405 16.4594 9.45157 16.277 9.98864 16.1057C10.5517 18.1623 11.2904 20.3126 12.1818 22.487C11.2789 24.6937 10.5297 26.8782 9.96108 28.959C9.57821 28.8354 9.20726 28.7054 8.85034 28.5685ZM11.0262 11.9384C10.1806 7.08561 10.7422 3.42485 12.1556 2.50624C13.661 1.52764 16.99 2.92291 20.4987 6.42098C20.723 6.64456 20.9482 6.87857 21.174 7.12068C19.8665 8.69699 18.5746 10.4916 17.3405 12.4472C15.2241 12.6674 13.1982 13.0212 11.3356 13.495C11.2185 12.9661 11.1148 12.4464 11.0262 11.9384ZM30.4372 17.3201C29.9919 16.4565 29.5348 15.6134 29.0688 14.7932C30.5046 14.997 31.8802 15.2675 33.172 15.5986C32.7842 16.9942 32.3008 18.4534 31.7318 19.9494C31.3236 19.0792 30.8919 18.2019 30.4372 17.3201ZM22.5215 8.66327C23.4082 9.74187 24.2961 10.9461 25.1696 12.2527C24.2894 12.206 23.3984 12.1818 22.5 12.1818C21.6101 12.1818 20.7256 12.2055 19.851 12.2514C20.7252 10.9569 21.6209 9.75428 22.5215 8.66327ZM14.555 17.335C14.1102 18.201 13.6865 19.0736 13.2847 19.9477C12.7249 18.457 12.246 16.9912 11.8548 15.5758C13.1387 15.2532 14.5078 14.9894 15.9345 14.7895C15.4619 15.6171 15.001 16.4667 14.555 17.335ZM15.9756 30.2335C14.5016 30.0488 13.1119 29.7986 11.8283 29.4849C12.2257 28.0442 12.7152 26.5471 13.2869 25.0243C13.6897 25.8978 14.1151 26.7707 14.5626 27.6386C15.0185 28.5228 15.4908 29.3889 15.9756 30.2335ZM22.5747 36.3578C21.6635 35.2541 20.7547 34.0331 19.8671 32.7198C20.7288 32.7577 21.6072 32.7771 22.5 32.7771C23.4172 32.7771 24.3239 32.7539 25.2164 32.7093C24.3401 34.0463 23.4553 35.2692 22.5747 36.3578ZM31.7501 24.9467C32.3516 26.4859 32.8586 27.9753 33.2612 29.3914C31.9565 29.7256 30.5477 29.9948 29.0635 30.1948C29.5306 29.3636 29.9918 28.506 30.4449 27.6238C30.9033 26.7313 31.3386 25.8374 31.7501 24.9467ZM28.7797 26.5455C28.0763 27.9149 27.3541 29.2222 26.621 30.4562C25.2856 30.5634 23.9061 30.6187 22.5 30.6187C21.0996 30.6187 19.7375 30.5698 18.4257 30.4742C17.663 29.224 16.9252 27.9128 16.2262 26.5572C15.5291 25.2053 14.8877 23.842 14.3063 22.4863C14.8875 21.1274 15.5274 19.7626 16.2205 18.4131L16.2204 18.4133C16.9153 17.0602 17.6467 15.7555 18.4024 14.5131C19.7407 14.3995 21.113 14.3402 22.4999 14.3402C23.8931 14.3402 25.2673 14.3999 26.6052 14.5145C27.3493 15.7478 28.0757 17.0484 28.7734 18.4016C29.479 19.7701 30.1271 21.1259 30.7133 22.4556C30.1289 23.8082 29.4822 25.1776 28.7797 26.5455ZM32.7454 2.44202C34.2523 3.41774 34.8383 7.35281 33.8915 12.5129C33.8311 12.8422 33.7631 13.1775 33.6892 13.5174C31.8223 13.0337 29.795 12.6738 27.6724 12.4502C26.4359 10.4731 25.1546 8.67577 23.8684 7.11969C24.2142 6.74619 24.5595 6.39004 24.9034 6.05395C28.2256 2.8077 31.3306 1.52602 32.7454 2.44202ZM22.5 17.9226C24.7192 17.9226 26.5183 19.9426 26.5183 22.4345C26.5183 24.9262 24.7192 26.9463 22.5 26.9463C20.2808 26.9463 18.4817 24.9262 18.4817 22.4345C18.4817 19.9426 20.2808 17.9226 22.5 17.9226Z" fill="#00D8FF"/>
</g>
<defs>
<clipPath id="clip0_10_180">
<rect width="45" height="45" fill="white"/>
</clipPath>
</defs>
</svg>
