<svg width="45" height="45" viewBox="0 0 45 45" fill="none" xmlns="http://www.w3.org/2000/svg">
<g id="shopee 1">
<path id="Vector" d="M5.15625 12.1875V10.7812C4.96367 10.7812 4.77315 10.8208 4.59648 10.8974C4.41981 10.9741 4.26077 11.0862 4.12921 11.2268C3.99766 11.3675 3.89638 11.5336 3.83168 11.715C3.76697 11.8964 3.74021 12.0891 3.75304 12.2812L5.15625 12.1875ZM39.8438 12.1875L41.247 12.2812C41.2598 12.0891 41.233 11.8964 41.1683 11.715C41.1036 11.5336 41.0023 11.3675 40.8708 11.2268C40.7392 11.0862 40.5802 10.9741 40.4035 10.8974C40.2268 10.8208 40.0363 10.7812 39.8438 10.7812V12.1875ZM8.20101 36.7184L6.55945 12.094L3.75304 12.281L5.39484 36.9054L8.20101 36.7184ZM39.6052 36.9054L41.247 12.281L38.4405 12.094L36.799 36.7184L39.6052 36.9054ZM36.799 36.7184C36.7594 37.3117 36.4959 37.8678 36.0616 38.274C35.6274 38.6803 35.055 38.9063 34.4604 38.9062V41.7188C37.1749 41.7188 39.4247 39.6141 39.6052 36.9054L36.799 36.7184ZM5.39484 36.9054C5.57531 39.6141 7.82508 41.7188 10.5394 41.7188V38.9062C9.94479 38.9062 9.37245 38.6802 8.93827 38.2739C8.5041 37.8677 8.24055 37.3116 8.20101 36.7184L5.39484 36.9054ZM17.3437 11.25C17.3437 8.40234 19.6523 6.09375 22.5 6.09375V3.28125C18.0989 3.28125 14.5312 6.84891 14.5312 11.25H17.3437ZM22.5 6.09375C25.3477 6.09375 27.6562 8.40234 27.6562 11.25H30.4687C30.4687 6.84891 26.9011 3.28125 22.5 3.28125V6.09375ZM5.15625 13.5938H39.8438V10.7812H5.15625V13.5938ZM10.5396 41.7188H34.4602V38.9062H10.5396V41.7188Z" fill="black"/>
</g>
</svg>
