<svg width="45" height="45" viewBox="0 0 45 45" fill="none" xmlns="http://www.w3.org/2000/svg">
<g id="sql-database-generic 1" clip-path="url(#clip0_10_183)">
<path id="Vector" d="M18.931 44.9711C13.3092 44.6675 7.75285 43.6073 4.34516 42.1878C2.40415 41.3794 0.925362 40.3858 0.345078 39.5003L-0.000175476 38.9733V22.4467V5.92011L0.273022 5.50448C1.4939 3.64726 5.39026 1.97297 10.8294 0.968378C12.6757 0.627342 15.3411 0.287724 17.5156 0.116467C19.736 -0.0584546 25.6214 -0.0318415 27.8363 0.163394C33.7231 0.681601 38.7324 1.84174 41.8194 3.40189C43.0099 4.00354 44.2315 4.96624 44.6453 5.6289L45.0002 6.19705L44.9698 22.6737L44.9394 39.1504L44.6546 39.5839C44.498 39.8224 44.0248 40.2915 43.6031 40.6264C41.0362 42.6652 35.5303 44.1734 28.3082 44.816C26.8362 44.947 20.4412 45.0527 18.931 44.9711ZM29.2911 30.81C29.2695 30.7678 28.4291 30.2068 27.4235 29.5634C26.418 28.92 25.552 28.3633 25.499 28.3263C25.4461 28.2893 25.6319 28.1585 25.9119 28.0355C26.1919 27.9125 26.7283 27.5704 27.104 27.2752C28.2026 26.412 28.721 25.3458 28.721 23.9491C28.721 22.5742 28.1619 21.4648 27.0422 20.618C25.9137 19.7644 24.6179 19.3977 22.731 19.3977C19.8224 19.3977 17.5886 20.6693 16.8756 22.731C16.6303 23.4401 16.6316 24.873 16.8781 25.5018C17.5211 27.1419 19.2723 28.3332 21.4517 28.6129C22.1892 28.7075 22.2891 28.7483 22.7919 29.1602C23.0907 29.405 23.7039 29.8936 24.1546 30.246L24.974 30.8868H27.1522C28.3502 30.8868 29.3127 30.8523 29.2911 30.81ZM21.8211 26.2403C21.2967 26.0354 21.0985 25.8765 20.7994 25.421C20.5685 25.0692 20.529 24.8691 20.5264 24.0375C20.5238 23.1926 20.5597 23.0101 20.8008 22.6432C21.1954 22.0428 21.7391 21.7586 22.5801 21.713C23.7509 21.6494 24.4267 22.0799 24.7809 23.1145C25.2151 24.383 24.7376 25.7316 23.6957 26.1792C23.1491 26.414 22.3338 26.4406 21.8211 26.2403ZM12.1662 28.5949C14.4499 28.2704 15.7463 27.2752 15.7463 25.8467C15.7463 24.5794 14.9094 23.841 12.5962 23.0672C11.272 22.6243 10.7923 22.3463 10.7923 22.0214C10.7923 21.7522 11.2475 21.4572 11.7774 21.3831C12.2948 21.3107 13.667 21.4892 14.4773 21.7345L15.1566 21.9401V20.8136V19.687L14.4194 19.5644C13.9638 19.4887 13.0064 19.4433 11.9129 19.4456C10.364 19.4456 10.0607 19.4739 9.47783 19.6473C7.77522 20.1537 6.96728 21.0164 6.9802 22.3142C6.9923 23.5291 7.84767 24.2869 9.97647 24.9686C11.2325 25.3708 11.736 25.6771 11.736 26.0391C11.736 26.8083 10.0255 26.9029 8.21454 26.234C7.71859 26.0508 7.27299 25.886 7.22434 25.8677C7.17569 25.8495 7.13589 26.3757 7.13589 27.0372C7.13589 28.2344 7.13759 28.2402 7.42689 28.3227C8.51634 28.6331 10.9242 28.7713 12.1662 28.5949ZM38.2751 27.4842V26.4679H36.2109H34.1467V22.977V19.4861H32.3185H30.4903V23.9933V28.5006H34.3827H38.2751V27.4842ZM25.5363 9.67387C29.1694 9.48506 31.8927 9.12859 34.2892 8.52823C36.6766 7.93011 38.087 7.20639 38.4024 6.41748C38.524 6.11347 38.5153 5.99816 38.3454 5.66484C37.5837 4.17052 33.3289 3.02242 26.8271 2.55692C24.046 2.35777 18.988 2.42233 16.3363 2.69072C12.29 3.10035 9.00626 3.86122 7.54618 4.72747C4.59259 6.4799 7.71603 8.40733 14.9797 9.31453C18.1292 9.7079 22.2096 9.84679 25.5363 9.67387Z" fill="#00BCF2"/>
</g>
<defs>
<clipPath id="clip0_10_183">
<rect width="45" height="45" fill="white"/>
</clipPath>
</defs>
</svg>
