<svg width="45" height="45" viewBox="0 0 45 45" fill="none" xmlns="http://www.w3.org/2000/svg">
<path id="Vector" d="M42.1875 4.52116e-07H2.8125C2.4431 -0.000209054 2.07728 0.0723954 1.73596 0.213663C1.39463 0.35493 1.0845 0.562089 0.823295 0.823295C0.562089 1.0845 0.35493 1.39463 0.213663 1.73596C0.0723954 2.07728 -0.000209054 2.4431 4.52116e-07 2.8125V30.9375C-0.000209054 31.3069 0.0723954 31.6727 0.213663 32.014C0.35493 32.3554 0.562089 32.6655 0.823295 32.9267C1.0845 33.1879 1.39463 33.3951 1.73596 33.5363C2.07728 33.6776 2.4431 33.7502 2.8125 33.75H19.6875V39.375H14.0625C13.3166 39.375 12.6012 39.6713 12.0738 40.1988C11.5463 40.7262 11.25 41.4416 11.25 42.1875C11.25 42.9334 11.5463 43.6488 12.0738 44.1762C12.6012 44.7037 13.3166 45 14.0625 45H30.9375C31.6834 45 32.3988 44.7037 32.9262 44.1762C33.4537 43.6488 33.75 42.9334 33.75 42.1875C33.75 41.4416 33.4537 40.7262 32.9262 40.1988C32.3988 39.6713 31.6834 39.375 30.9375 39.375H25.3125V33.75H42.1875C42.5569 33.7502 42.9227 33.6776 43.264 33.5363C43.6054 33.3951 43.9155 33.1879 44.1767 32.9267C44.4379 32.6655 44.6451 32.3554 44.7863 32.014C44.9276 31.6727 45.0002 31.3069 45 30.9375V2.8125C45.0002 2.4431 44.9276 2.07728 44.7863 1.73596C44.6451 1.39463 44.4379 1.0845 44.1767 0.823295C43.9155 0.562089 43.6054 0.35493 43.264 0.213663C42.9227 0.0723954 42.5569 -0.000209054 42.1875 4.52116e-07ZM39.375 28.125H5.625V5.625H39.375V28.125Z" fill="black"/>
</svg>
