<svg width="45" height="45" viewBox="0 0 45 45" fill="none" xmlns="http://www.w3.org/2000/svg">
<path id="Vector" d="M22.5 45C10.125 45 0 34.875 0 22.5C0 10.125 10.125 0 22.5 0C34.875 0 45 10.125 45 22.5C45 34.875 34.875 45 22.5 45ZM4.125 18.75C3.9375 19.875 3.75 21.1875 3.75 22.5C3.75 32.8125 12.1875 41.25 22.5 41.25C22.875 41.25 23.0625 41.25 23.4375 41.25C22.875 40.3125 22.5 39 22.5 37.3125C22.5 36 21.9375 35.625 20.625 34.875C18.1875 33.75 15.75 31.875 17.625 26.625C17.625 26.4375 16.875 26.25 16.5 26.0625C14.4375 25.5 13.875 23.8125 13.6875 22.6875C13.5 21.9375 13.3125 21 12.5625 20.4375C11.25 19.125 6.9375 18.5625 4.125 18.75ZM17.4375 22.5C18 22.6875 19.875 23.25 20.8125 24.9375C21.375 25.875 21.375 26.8125 21 27.9375C20.0625 30.5625 20.4375 30.75 22.125 31.5C23.625 32.25 26.25 33.5625 26.25 37.3125C26.25 38.25 26.4375 39.1875 27 39.75C27.375 40.125 27.5625 40.3125 27.9375 40.3125C28.6875 40.3125 28.6875 39.375 28.6875 39C28.6875 36 30.1875 33.75 31.3125 31.875C32.0625 30.5625 32.8125 29.4375 32.8125 28.5C32.8125 27.1875 32.0625 26.625 30.1875 25.875C29.625 25.6875 29.0625 25.3125 28.5 25.125C27.9375 24.75 27.375 24.375 26.8125 24C25.6875 23.0625 24.9375 22.5 22.5 22.5H21.75L21.1875 21.9375C20.0625 21 16.875 18.1875 18.9375 14.0625C19.5 12.9375 20.4375 12.1875 21.1875 11.625C22.5 10.6875 23.25 10.125 23.25 7.6875C23.25 5.625 21.375 3.75 20.4375 3.75C13.6875 4.5 7.875 8.8125 5.25 14.8125C8.0625 14.8125 12.9375 15.1875 15.1875 17.8125C16.5 19.125 16.875 20.625 17.0625 21.75C17.25 22.125 17.4375 22.3125 17.4375 22.5ZM23.25 18.75C26.25 18.9375 27.75 19.875 29.0625 20.8125C29.4375 21.1875 29.8125 21.375 30.375 21.5625C30.75 21.75 31.125 21.9375 31.6875 22.125C33.5625 23.0625 36.5625 24.375 36.5625 28.3125C36.5625 30.5625 35.4375 32.25 34.5 33.75C33.5625 35.25 32.625 36.5625 32.625 38.25C37.6875 35.0625 41.25 29.25 41.25 22.5C41.25 13.3125 34.6875 5.8125 26.0625 4.125C26.625 5.25 27 6.5625 27 7.875C27 12.1875 24.75 13.875 23.25 14.8125C22.6875 15.1875 22.3125 15.5625 22.125 15.75C21.9375 16.5 21.75 17.25 23.25 18.75Z" fill="black"/>
</svg>
