<svg width="45" height="45" viewBox="0 0 45 45" fill="none" xmlns="http://www.w3.org/2000/svg">
<g id="flag-for-flag-united-states-svgrepo-com 1" clip-path="url(#clip0_14_36)">
<path id="Vector" d="M44.3063 8.75C43.44 7.26125 41.8462 6.25 40 6.25H22.5V8.75H44.3063ZM0 31.25H45V33.75H0V31.25ZM22.5 21.25H45V23.75H22.5V21.25ZM22.5 16.25H45V18.75H22.5V16.25ZM0 26.25H45V28.75H0V26.25ZM5 38.75H40C41.8462 38.75 43.44 37.7388 44.3063 36.25H0.69375C1.56 37.7388 3.15375 38.75 5 38.75ZM22.5 11.25H45V13.75H22.5V11.25Z" fill="#B22334"/>
<path id="Vector_2" d="M0.085 34.5987C0.10625 34.715 0.13 34.8312 0.15875 34.945C0.19125 35.0712 0.23125 35.1925 0.27375 35.315C0.385 35.6387 0.52 35.9512 0.69 36.2437L0.69375 36.25H44.3063L44.3087 36.245C44.4765 35.9503 44.6155 35.6401 44.7237 35.3187C44.8061 35.0842 44.8696 34.8434 44.9137 34.5987C44.965 34.3237 45 34.0412 45 33.75H0C0 34.0412 0.035 34.3225 0.085 34.5987ZM0 28.75H45V31.25H0V28.75ZM0 23.75V26.25H45V23.75H22.5H0ZM22.5 18.75H45V21.25H22.5V18.75ZM22.5 13.75H45V16.25H22.5V13.75ZM0.16 10.055C0.19125 9.9275 0.235 9.80625 0.275 9.68375C0.231591 9.80587 0.193225 9.92972 0.16 10.055ZM22.5 11.25H45C45 10.9587 44.965 10.6762 44.9137 10.4C44.87 10.1551 44.806 9.91431 44.7225 9.68C44.6142 9.35727 44.4748 9.04581 44.3063 8.75H22.5V11.25Z" fill="#EEEEEE"/>
<path id="Vector_3" d="M22.5 6.25H5C3.67392 6.25 2.40215 6.77678 1.46447 7.71447C0.526784 8.65215 0 9.92392 0 11.25L0 23.75H22.5V6.25Z" fill="#3C3B6E"/>
<path id="Vector_4" d="M2.50122 9.6575L3.27372 10.2188L2.97872 11.125L3.74997 10.565L4.52247 11.125L4.22747 10.2188L4.99997 9.6575H4.04497L3.74997 8.75L3.45622 9.6575H2.50122ZM5.00122 12.1575L5.77372 12.7188L5.47872 13.625L6.24997 13.065L7.02247 13.625L6.72747 12.7188L7.49997 12.1575H6.54497L6.24997 11.25L5.95622 12.1575H5.00122ZM10.0012 12.1575L10.7737 12.7188L10.4787 13.625L11.25 13.065L12.0225 13.625L11.7275 12.7188L12.5 12.1575H11.545L11.25 11.25L10.9562 12.1575H10.0012ZM15.0012 12.1575L15.7737 12.7188L15.4787 13.625L16.25 13.065L17.0225 13.625L16.7275 12.7188L17.5 12.1575H16.545L16.25 11.25L15.9562 12.1575H15.0012ZM5.00122 17.1575L5.77372 17.7188L5.47872 18.625L6.24997 18.065L7.02247 18.625L6.72747 17.7188L7.49997 17.1575H6.54497L6.24997 16.25L5.95622 17.1575H5.00122ZM10.0012 17.1575L10.7737 17.7188L10.4787 18.625L11.25 18.065L12.0225 18.625L11.7275 17.7188L12.5 17.1575H11.545L11.25 16.25L10.9562 17.1575H10.0012ZM15.0012 17.1575L15.7737 17.7188L15.4787 18.625L16.25 18.065L17.0225 18.625L16.7275 17.7188L17.5 17.1575H16.545L16.25 16.25L15.9562 17.1575H15.0012ZM7.50122 9.6575L8.27372 10.2188L7.97872 11.125L8.74997 10.565L9.52247 11.125L9.22747 10.2188L9.99997 9.6575H9.04497L8.74997 8.75L8.45622 9.6575H7.50122ZM12.5012 9.6575L13.2737 10.2188L12.9787 11.125L13.75 10.565L14.5225 11.125L14.2275 10.2188L15 9.6575H14.045L13.75 8.75L13.4562 9.6575H12.5012ZM17.5012 9.6575L18.2737 10.2188L17.9787 11.125L18.75 10.565L19.5225 11.125L19.2275 10.2188L20 9.6575H19.045L18.75 8.75L18.4562 9.6575H17.5012ZM2.50122 14.6575L3.27372 15.2188L2.97872 16.125L3.74997 15.565L4.52247 16.125L4.22747 15.2188L4.99997 14.6575H4.04497L3.74997 13.75L3.45622 14.6575H2.50122ZM7.97872 16.125L8.74997 15.565L9.52247 16.125L9.22747 15.2188L9.99997 14.6575H9.04497L8.74997 13.75L8.45622 14.6575H7.50122L8.27372 15.2188L7.97872 16.125ZM12.5012 14.6575L13.2737 15.2188L12.9787 16.125L13.75 15.565L14.5225 16.125L14.2275 15.2188L15 14.6575H14.045L13.75 13.75L13.4562 14.6575H12.5012ZM17.5012 14.6575L18.2737 15.2188L17.9787 16.125L18.75 15.565L19.5225 16.125L19.2275 15.2188L20 14.6575H19.045L18.75 13.75L18.4562 14.6575H17.5012ZM2.50122 19.6575L3.27372 20.2187L2.97872 21.125L3.74997 20.565L4.52247 21.125L4.22747 20.2187L4.99997 19.6575H4.04497L3.74997 18.75L3.45622 19.6575H2.50122ZM7.97872 21.125L8.74997 20.565L9.52247 21.125L9.22747 20.2187L9.99997 19.6575H9.04497L8.74997 18.75L8.45622 19.6575H7.50122L8.27372 20.2187L7.97872 21.125ZM12.5012 19.6575L13.2737 20.2187L12.9787 21.125L13.75 20.565L14.5225 21.125L14.2275 20.2187L15 19.6575H14.045L13.75 18.75L13.4562 19.6575H12.5012ZM17.5012 19.6575L18.2737 20.2187L17.9787 21.125L18.75 20.565L19.5225 21.125L19.2275 20.2187L20 19.6575H19.045L18.75 18.75L18.4562 19.6575H17.5012Z" fill="white"/>
</g>
<defs>
<clipPath id="clip0_14_36">
<rect width="45" height="45" fill="white"/>
</clipPath>
</defs>
</svg>
