<svg width="40" height="40" viewBox="0 0 40 40" fill="none" xmlns="http://www.w3.org/2000/svg">
<g id="file-type-vscode 1">
<path id="Vector" d="M36.2625 6.28747L29.055 2.81747C28.648 2.62122 28.19 2.55645 27.7445 2.63216C27.299 2.70786 26.8881 2.92028 26.5688 3.23997L2.97501 24.75C2.68874 25.0097 2.51739 25.3725 2.49864 25.7586C2.47988 26.1447 2.61527 26.5224 2.87501 26.8087C2.90626 26.8425 2.93751 26.875 2.97126 26.905L4.89751 28.655C5.14921 28.8841 5.4732 29.0177 5.81321 29.0328C6.15322 29.0479 6.48777 28.9434 6.75876 28.7375L35.1775 7.18747C35.3922 7.02458 35.648 6.92485 35.9163 6.89949C36.1845 6.87413 36.4546 6.92416 36.6959 7.04393C36.9373 7.16371 37.1405 7.34849 37.2825 7.57746C37.4246 7.80643 37.4999 8.07051 37.5 8.33997V8.25622C37.5 7.84485 37.3838 7.44183 37.1649 7.09355C36.946 6.74527 36.6332 6.46586 36.2625 6.28747Z" fill="#0065A9"/>
<path id="Vector_2" d="M36.2625 33.7125L29.055 37.1837C28.6479 37.3794 28.19 37.4439 27.7446 37.3682C27.2993 37.2925 26.8884 37.0805 26.5688 36.7612L2.97501 15.25C2.68874 14.9902 2.51739 14.6274 2.49864 14.2413C2.47988 13.8552 2.61527 13.4775 2.87501 13.1912C2.90626 13.1575 2.93751 13.125 2.97126 13.095L4.89751 11.345C5.14946 11.115 5.4742 10.9807 5.81505 10.9656C6.1559 10.9505 6.49122 11.0556 6.76251 11.2625L35.1775 32.8125C35.3922 32.9754 35.648 33.0751 35.9163 33.1005C36.1845 33.1258 36.4546 33.0758 36.6959 32.956C36.9373 32.8363 37.1405 32.6515 37.2825 32.4225C37.4246 32.1935 37.4999 31.9295 37.5 31.66V31.75C37.4987 32.1603 37.3819 32.5619 37.1631 32.9089C36.9442 33.256 36.6321 33.5345 36.2625 33.7125Z" fill="#007ACC"/>
<path id="Vector_3" d="M29.055 37.1837C28.6479 37.3794 28.19 37.4439 27.7446 37.3682C27.2993 37.2925 26.8884 37.0804 26.5688 36.7612C26.7483 36.9384 26.9761 37.0586 27.2236 37.1069C27.4712 37.1552 27.7274 37.1293 27.9604 37.0325C28.1933 36.9358 28.3924 36.7724 28.5329 36.5629C28.6734 36.3535 28.7489 36.1072 28.75 35.855V4.14499C28.7502 3.8916 28.6752 3.64385 28.5345 3.43312C28.3938 3.22239 28.1937 3.05817 27.9596 2.96125C27.7254 2.86434 27.4678 2.83909 27.2193 2.88871C26.9709 2.93833 26.7427 3.06058 26.5638 3.23999C26.8832 2.92041 27.294 2.70798 27.7394 2.63207C28.1848 2.55615 28.6428 2.62051 29.05 2.81624L36.2563 6.28124C36.6281 6.45874 36.9422 6.73776 37.1623 7.08611C37.3823 7.43446 37.4994 7.83794 37.5 8.24999V31.75C37.5001 32.1617 37.3839 32.5651 37.1647 32.9136C36.9455 33.2622 36.6324 33.5417 36.2613 33.72L29.055 37.1837Z" fill="#1F9CF0"/>
</g>
</svg>
