<svg width="23" height="3" viewBox="0 0 23 3" fill="none" xmlns="http://www.w3.org/2000/svg">
<g id="Vector">
<path d="M21.982 0.56774C21.4174 0.558636 20.865 0.732539 20.4074 1.06345C20.1147 1.28543 19.7575 1.4056 19.3902 1.40565C19.0229 1.4057 18.6656 1.28561 18.3729 1.06371C17.9131 0.736111 17.3625 0.560056 16.798 0.560056C16.2334 0.560056 15.6828 0.736111 15.223 1.06371C14.9311 1.28557 14.5745 1.40569 14.2078 1.40569C13.8411 1.40569 13.4845 1.28557 13.1926 1.06371C12.7332 0.73613 12.183 0.56007 11.6188 0.56007C11.0546 0.56007 10.5044 0.73613 10.045 1.06371C9.753 1.28558 9.39637 1.4057 9.02965 1.4057C8.66293 1.4057 8.3063 1.28558 8.01431 1.06371C7.55497 0.736087 7.00483 0.559998 6.44063 0.559998C5.87643 0.559998 5.32629 0.736087 4.86696 1.06371C4.57502 1.28559 4.21843 1.40573 3.85174 1.40573C3.48505 1.40573 3.12846 1.28559 2.83653 1.06371C2.37938 0.732607 1.82723 0.558591 1.26285 0.56774C1.12548 0.56774 0.993726 0.622314 0.896586 0.719454C0.799446 0.816594 0.744873 0.948343 0.744873 1.08572C0.744873 1.2231 0.799446 1.35485 0.896586 1.45199C0.993726 1.54913 1.12548 1.6037 1.26285 1.6037C1.62944 1.59457 1.98797 1.71203 2.27809 1.9363C2.73742 2.26392 3.28755 2.44001 3.85174 2.44001C4.41594 2.44001 4.96606 2.26392 5.42539 1.9363C5.71734 1.71441 6.07394 1.59427 6.44063 1.59427C6.80733 1.59427 7.16393 1.71441 7.45587 1.9363C7.91525 2.2639 8.46542 2.43999 9.02965 2.43999C9.59388 2.43999 10.144 2.2639 10.6034 1.9363C10.8954 1.7144 11.252 1.59426 11.6188 1.59426C11.9855 1.59426 12.3421 1.7144 12.6341 1.9363C13.0935 2.2639 13.6436 2.43999 14.2078 2.43999C14.772 2.43999 15.3221 2.2639 15.7815 1.9363C16.0739 1.71438 16.4309 1.59425 16.798 1.59425C17.165 1.59425 17.522 1.71438 17.8144 1.9363C18.2744 2.26388 18.8251 2.43993 19.3899 2.43993C19.9546 2.43993 20.5053 2.26388 20.9653 1.9363C21.2559 1.7119 21.615 1.59445 21.982 1.6037C22.1194 1.6037 22.2512 1.54913 22.3483 1.45199C22.4455 1.35485 22.5 1.2231 22.5 1.08572C22.5 0.948343 22.4455 0.816594 22.3483 0.719454C22.2512 0.622314 22.1194 0.56774 21.982 0.56774Z" fill="black"/>
<path d="M21.982 0.56774C21.4174 0.558636 20.865 0.732539 20.4074 1.06345C20.1147 1.28543 19.7575 1.4056 19.3902 1.40565C19.0229 1.4057 18.6656 1.28561 18.3729 1.06371C17.9131 0.736111 17.3625 0.560056 16.798 0.560056C16.2334 0.560056 15.6828 0.736111 15.223 1.06371C14.9311 1.28557 14.5745 1.40569 14.2078 1.40569C13.8411 1.40569 13.4845 1.28557 13.1926 1.06371C12.7332 0.73613 12.183 0.56007 11.6188 0.56007C11.0546 0.56007 10.5044 0.73613 10.045 1.06371C9.753 1.28558 9.39637 1.4057 9.02965 1.4057C8.66293 1.4057 8.3063 1.28558 8.01431 1.06371C7.55497 0.736087 7.00483 0.559998 6.44063 0.559998C5.87643 0.559998 5.32629 0.736087 4.86696 1.06371C4.57502 1.28559 4.21843 1.40573 3.85174 1.40573C3.48505 1.40573 3.12846 1.28559 2.83653 1.06371C2.37938 0.732607 1.82723 0.558591 1.26285 0.56774C1.12548 0.56774 0.993726 0.622314 0.896586 0.719454C0.799446 0.816594 0.744873 0.948343 0.744873 1.08572C0.744873 1.2231 0.799446 1.35485 0.896586 1.45199C0.993726 1.54913 1.12548 1.6037 1.26285 1.6037C1.62944 1.59457 1.98797 1.71203 2.27809 1.9363C2.73742 2.26392 3.28755 2.44001 3.85174 2.44001C4.41594 2.44001 4.96606 2.26392 5.42539 1.9363C5.71734 1.71441 6.07394 1.59427 6.44063 1.59427C6.80733 1.59427 7.16393 1.71441 7.45587 1.9363C7.91525 2.2639 8.46542 2.43999 9.02965 2.43999C9.59388 2.43999 10.144 2.2639 10.6034 1.9363C10.8954 1.7144 11.252 1.59426 11.6188 1.59426C11.9855 1.59426 12.3421 1.7144 12.6341 1.9363C13.0935 2.2639 13.6436 2.43999 14.2078 2.43999C14.772 2.43999 15.3221 2.2639 15.7815 1.9363C16.0739 1.71438 16.4309 1.59425 16.798 1.59425C17.165 1.59425 17.522 1.71438 17.8144 1.9363C18.2744 2.26388 18.8251 2.43993 19.3899 2.43993C19.9546 2.43993 20.5053 2.26388 20.9653 1.9363C21.2559 1.7119 21.615 1.59445 21.982 1.6037C22.1194 1.6037 22.2512 1.54913 22.3483 1.45199C22.4455 1.35485 22.5 1.2231 22.5 1.08572C22.5 0.948343 22.4455 0.816594 22.3483 0.719454C22.2512 0.622314 22.1194 0.56774 21.982 0.56774Z" stroke="black"/>
</g>
</svg>
